<svg width="199" height="60" viewBox="0 0 199 60" fill="none" xmlns="http://www.w3.org/2000/svg">
<rect width="199" height="60" rx="10" fill="#FF9C07"/>
<rect x="22" y="29" width="16" height="2" rx="1" fill="white"/>
<rect x="31" y="22" width="16" height="2" rx="1" transform="rotate(90 31 22)" fill="white"/>
<path d="M50.6108 38.8068V34.2784H51.3892C51.6506 34.0701 51.8949 33.7765 52.1222 33.3977C52.3494 33.0189 52.5426 32.5 52.7017 31.8409C52.8608 31.1818 52.9706 30.3295 53.0312 29.2841L53.3381 24.3636H60.7756V34.2784H62.071V38.7955H60.0483V36H52.6335V38.8068H50.6108ZM53.8438 34.2784H58.7528V26.1307H55.2358L55.054 29.2841C55.0047 30.0758 54.9252 30.7841 54.8153 31.4091C54.7055 32.0341 54.5672 32.5852 54.4006 33.0625C54.2339 33.536 54.0483 33.9413 53.8438 34.2784ZM67.5043 36.1705C66.652 36.1705 65.9134 35.983 65.2884 35.608C64.6634 35.233 64.1785 34.7083 63.8338 34.0341C63.4929 33.3598 63.3224 32.572 63.3224 31.6705C63.3224 30.7689 63.4929 29.9792 63.8338 29.3011C64.1785 28.6231 64.6634 28.0966 65.2884 27.7216C65.9134 27.3466 66.652 27.1591 67.5043 27.1591C68.3565 27.1591 69.0952 27.3466 69.7202 27.7216C70.3452 28.0966 70.8281 28.6231 71.169 29.3011C71.5137 29.9792 71.6861 30.7689 71.6861 31.6705C71.6861 32.572 71.5137 33.3598 71.169 34.0341C70.8281 34.7083 70.3452 35.233 69.7202 35.608C69.0952 35.983 68.3565 36.1705 67.5043 36.1705ZM67.5156 34.5227C67.9777 34.5227 68.3641 34.3958 68.6747 34.142C68.9853 33.8845 69.2164 33.5398 69.3679 33.108C69.5232 32.6761 69.6009 32.1951 69.6009 31.6648C69.6009 31.1307 69.5232 30.6477 69.3679 30.2159C69.2164 29.7803 68.9853 29.4337 68.6747 29.1761C68.3641 28.9186 67.9777 28.7898 67.5156 28.7898C67.0421 28.7898 66.6482 28.9186 66.3338 29.1761C66.0232 29.4337 65.7902 29.7803 65.6349 30.2159C65.4834 30.6477 65.4077 31.1307 65.4077 31.6648C65.4077 32.1951 65.4834 32.6761 65.6349 33.108C65.7902 33.5398 66.0232 33.8845 66.3338 34.142C66.6482 34.3958 67.0421 34.5227 67.5156 34.5227ZM80.4261 24.0455L81.142 25.375C80.8883 25.5947 80.6042 25.7538 80.2898 25.8523C79.9754 25.9508 79.6061 26.0152 79.1818 26.0455C78.7614 26.072 78.2614 26.0909 77.6818 26.1023C77.0303 26.1174 76.4981 26.2405 76.0852 26.4716C75.6723 26.7027 75.3561 27.053 75.1364 27.5227C74.9167 27.9886 74.7727 28.5833 74.7045 29.3068H74.8011C75.0739 28.7727 75.4564 28.3655 75.9489 28.0852C76.4413 27.8049 77.0189 27.6648 77.6818 27.6648C78.4053 27.6648 79.0436 27.8277 79.5966 28.1534C80.1534 28.4754 80.5871 28.9432 80.8977 29.5568C81.2121 30.1705 81.3693 30.9129 81.3693 31.7841C81.3693 32.6818 81.2008 33.4602 80.8636 34.1193C80.5265 34.7746 80.0473 35.2803 79.4261 35.6364C78.8087 35.9924 78.0758 36.1705 77.2273 36.1705C76.3826 36.1705 75.6477 35.9867 75.0227 35.6193C74.4015 35.2481 73.9205 34.7008 73.5795 33.9773C73.2424 33.25 73.0739 32.3542 73.0739 31.2898V30.5057C73.0739 28.4527 73.4564 26.9205 74.2216 25.9091C74.9867 24.8977 76.1212 24.3826 77.625 24.3636C78.072 24.3561 78.4716 24.3542 78.8239 24.358C79.1799 24.3617 79.4905 24.3447 79.7557 24.3068C80.0208 24.2689 80.2443 24.1818 80.4261 24.0455ZM77.2386 34.5227C77.6591 34.5227 78.0227 34.4148 78.3295 34.1989C78.6364 33.9792 78.8712 33.6686 79.0341 33.267C79.2008 32.8655 79.2841 32.3902 79.2841 31.8409C79.2841 31.2992 79.2008 30.839 79.0341 30.4602C78.8674 30.0777 78.6307 29.786 78.3239 29.5852C78.017 29.3845 77.6515 29.2841 77.2273 29.2841C76.9091 29.2841 76.6231 29.3409 76.3693 29.4545C76.1155 29.5682 75.8996 29.7348 75.7216 29.9545C75.5436 30.1742 75.4072 30.4413 75.3125 30.7557C75.2178 31.0701 75.1667 31.4318 75.1591 31.8409C75.1591 32.6629 75.3447 33.3163 75.7159 33.8011C76.0871 34.2822 76.5947 34.5227 77.2386 34.5227ZM85.6307 36.1761C85.0777 36.1761 84.5795 36.0777 84.1364 35.8807C83.697 35.6799 83.3485 35.3845 83.0909 34.9943C82.8371 34.6042 82.7102 34.1231 82.7102 33.5511C82.7102 33.0587 82.8011 32.6515 82.983 32.3295C83.1648 32.0076 83.4129 31.75 83.7273 31.5568C84.0417 31.3636 84.3958 31.2178 84.7898 31.1193C85.1875 31.017 85.5985 30.9432 86.0227 30.8977C86.5341 30.8447 86.9489 30.7973 87.267 30.7557C87.5852 30.7102 87.8163 30.642 87.9602 30.5511C88.108 30.4564 88.1818 30.3106 88.1818 30.1136V30.0795C88.1818 29.6515 88.0549 29.3201 87.8011 29.0852C87.5473 28.8504 87.1818 28.733 86.7045 28.733C86.2008 28.733 85.8011 28.8428 85.5057 29.0625C85.214 29.2822 85.017 29.5417 84.9148 29.8409L82.9943 29.5682C83.1458 29.0379 83.3958 28.5947 83.7443 28.2386C84.0928 27.8788 84.5189 27.6098 85.0227 27.4318C85.5265 27.25 86.0833 27.1591 86.6932 27.1591C87.1136 27.1591 87.5322 27.2083 87.9489 27.3068C88.3655 27.4053 88.7462 27.5682 89.0909 27.7955C89.4356 28.0189 89.7121 28.3239 89.9205 28.7102C90.1326 29.0966 90.2386 29.5795 90.2386 30.1591V36H88.2614V34.8011H88.1932C88.0682 35.0436 87.892 35.2708 87.6648 35.483C87.4413 35.6913 87.1591 35.8598 86.8182 35.9886C86.4811 36.1136 86.0852 36.1761 85.6307 36.1761ZM86.1648 34.6648C86.5777 34.6648 86.9356 34.5833 87.2386 34.4205C87.5417 34.2538 87.7746 34.0341 87.9375 33.7614C88.1042 33.4886 88.1875 33.1913 88.1875 32.8693V31.8409C88.1231 31.8939 88.0133 31.9432 87.858 31.9886C87.7064 32.0341 87.536 32.0739 87.3466 32.108C87.1572 32.142 86.9697 32.1723 86.7841 32.1989C86.5985 32.2254 86.4375 32.2481 86.3011 32.267C85.9943 32.3087 85.7197 32.3769 85.4773 32.4716C85.2348 32.5663 85.0436 32.6989 84.9034 32.8693C84.7633 33.036 84.6932 33.2519 84.6932 33.517C84.6932 33.8958 84.8314 34.1818 85.108 34.375C85.3845 34.5682 85.7367 34.6648 86.1648 34.6648ZM92.3068 36V27.2727H95.9716C97.0057 27.2727 97.822 27.4792 98.4205 27.892C99.0227 28.3049 99.3239 28.8807 99.3239 29.6193C99.3239 30.108 99.1534 30.5076 98.8125 30.8182C98.4754 31.125 98.0152 31.3314 97.4318 31.4375C97.8902 31.4754 98.2917 31.5909 98.6364 31.7841C98.9848 31.9773 99.2576 32.2311 99.4545 32.5455C99.6515 32.8598 99.75 33.2216 99.75 33.6307C99.75 34.1117 99.6231 34.5303 99.3693 34.8864C99.1193 35.2386 98.7538 35.5133 98.2727 35.7102C97.7955 35.9034 97.2159 36 96.5341 36H92.3068ZM94.233 34.3807H96.5341C96.9129 34.3807 97.2102 34.2917 97.4261 34.1136C97.642 33.9318 97.75 33.6856 97.75 33.375C97.75 33.0152 97.642 32.733 97.4261 32.5284C97.2102 32.3201 96.9129 32.2159 96.5341 32.2159H94.233V34.3807ZM94.233 30.8864H96.0114C96.2917 30.8864 96.5322 30.8466 96.733 30.767C96.9337 30.6837 97.0871 30.5682 97.1932 30.4205C97.2992 30.2689 97.3523 30.089 97.3523 29.8807C97.3523 29.5814 97.2292 29.3466 96.983 29.1761C96.7405 29.0057 96.4034 28.9205 95.9716 28.9205H94.233V30.8864ZM103.43 33.2159L106.925 27.2727H109.038V36H107.05V30.0511L103.567 36H101.447V27.2727H103.43V33.2159ZM110.173 28.9602V27.2727H117.81V28.9602H114.986V36H112.997V28.9602H110.173ZM120.839 30.1136H123.413C124.527 30.1136 125.389 30.3845 125.999 30.9261C126.608 31.4678 126.915 32.178 126.919 33.0568C126.915 33.6288 126.775 34.1364 126.499 34.5795C126.226 35.0227 125.828 35.3712 125.305 35.625C124.786 35.875 124.156 36 123.413 36H119.447V27.2727H121.43V34.3125H123.413C123.86 34.3125 124.228 34.1989 124.516 33.9716C124.804 33.7405 124.947 33.4451 124.947 33.0852C124.947 32.7064 124.804 32.3977 124.516 32.1591C124.228 31.9205 123.86 31.8011 123.413 31.8011H120.839V30.1136ZM136.457 36.1705C135.605 36.1705 134.866 35.983 134.241 35.608C133.616 35.233 133.132 34.7083 132.787 34.0341C132.446 33.3598 132.276 32.572 132.276 31.6705C132.276 30.7689 132.446 29.9792 132.787 29.3011C133.132 28.6231 133.616 28.0966 134.241 27.7216C134.866 27.3466 135.605 27.1591 136.457 27.1591C137.31 27.1591 138.048 27.3466 138.673 27.7216C139.298 28.0966 139.781 28.6231 140.122 29.3011C140.467 29.9792 140.639 30.7689 140.639 31.6705C140.639 32.572 140.467 33.3598 140.122 34.0341C139.781 34.7083 139.298 35.233 138.673 35.608C138.048 35.983 137.31 36.1705 136.457 36.1705ZM136.469 34.5227C136.931 34.5227 137.317 34.3958 137.628 34.142C137.938 33.8845 138.17 33.5398 138.321 33.108C138.476 32.6761 138.554 32.1951 138.554 31.6648C138.554 31.1307 138.476 30.6477 138.321 30.2159C138.17 29.7803 137.938 29.4337 137.628 29.1761C137.317 28.9186 136.931 28.7898 136.469 28.7898C135.995 28.7898 135.601 28.9186 135.287 29.1761C134.976 29.4337 134.743 29.7803 134.588 30.2159C134.437 30.6477 134.361 31.1307 134.361 31.6648C134.361 32.1951 134.437 32.6761 134.588 33.108C134.743 33.5398 134.976 33.8845 135.287 34.142C135.601 34.3958 135.995 34.5227 136.469 34.5227ZM149.379 24.0455L150.095 25.375C149.841 25.5947 149.557 25.7538 149.243 25.8523C148.929 25.9508 148.559 26.0152 148.135 26.0455C147.714 26.072 147.214 26.0909 146.635 26.1023C145.983 26.1174 145.451 26.2405 145.038 26.4716C144.625 26.7027 144.309 27.053 144.089 27.5227C143.87 27.9886 143.726 28.5833 143.658 29.3068H143.754C144.027 28.7727 144.41 28.3655 144.902 28.0852C145.394 27.8049 145.972 27.6648 146.635 27.6648C147.358 27.6648 147.997 27.8277 148.55 28.1534C149.107 28.4754 149.54 28.9432 149.851 29.5568C150.165 30.1705 150.322 30.9129 150.322 31.7841C150.322 32.6818 150.154 33.4602 149.817 34.1193C149.48 34.7746 149 35.2803 148.379 35.6364C147.762 35.9924 147.029 36.1705 146.18 36.1705C145.336 36.1705 144.601 35.9867 143.976 35.6193C143.355 35.2481 142.874 34.7008 142.533 33.9773C142.196 33.25 142.027 32.3542 142.027 31.2898V30.5057C142.027 28.4527 142.41 26.9205 143.175 25.9091C143.94 24.8977 145.074 24.3826 146.578 24.3636C147.025 24.3561 147.425 24.3542 147.777 24.358C148.133 24.3617 148.444 24.3447 148.709 24.3068C148.974 24.2689 149.197 24.1818 149.379 24.0455ZM146.192 34.5227C146.612 34.5227 146.976 34.4148 147.283 34.1989C147.589 33.9792 147.824 33.6686 147.987 33.267C148.154 32.8655 148.237 32.3902 148.237 31.8409C148.237 31.2992 148.154 30.839 147.987 30.4602C147.821 30.0777 147.584 29.786 147.277 29.5852C146.97 29.3845 146.605 29.2841 146.18 29.2841C145.862 29.2841 145.576 29.3409 145.322 29.4545C145.069 29.5682 144.853 29.7348 144.675 29.9545C144.497 30.1742 144.36 30.4413 144.266 30.7557C144.171 31.0701 144.12 31.4318 144.112 31.8409C144.112 32.6629 144.298 33.3163 144.669 33.8011C145.04 34.2822 145.548 34.5227 146.192 34.5227ZM151.589 33.608H153.629C153.648 33.9337 153.794 34.1856 154.067 34.3636C154.339 34.5417 154.694 34.6307 155.129 34.6307C155.572 34.6307 155.946 34.5341 156.249 34.3409C156.555 34.1439 156.709 33.8466 156.709 33.4489C156.709 33.214 156.65 33.0076 156.533 32.8295C156.415 32.6477 156.25 32.5076 156.038 32.4091C155.826 32.3106 155.576 32.2614 155.288 32.2614H153.953V30.8011H155.288C155.716 30.8011 156.04 30.7027 156.26 30.5057C156.483 30.3087 156.595 30.0606 156.595 29.7614C156.595 29.4394 156.478 29.178 156.243 28.9773C156.012 28.7765 155.692 28.6761 155.283 28.6761C154.874 28.6761 154.533 28.7689 154.26 28.9545C153.991 29.1402 153.851 29.3788 153.839 29.6705H151.811C151.819 29.1629 151.97 28.7216 152.266 28.3466C152.565 27.9716 152.966 27.6799 153.47 27.4716C153.978 27.2633 154.55 27.1591 155.186 27.1591C155.868 27.1591 156.457 27.2614 156.953 27.4659C157.449 27.6705 157.832 27.9564 158.101 28.3239C158.37 28.6875 158.504 29.1155 158.504 29.608C158.504 30.0814 158.357 30.4735 158.061 30.7841C157.766 31.0909 157.368 31.3106 156.868 31.4432V31.5341C157.213 31.553 157.523 31.6515 157.8 31.8295C158.076 32.0038 158.296 32.2405 158.459 32.5398C158.622 32.839 158.703 33.1856 158.703 33.5795C158.703 34.1136 158.55 34.5758 158.243 34.9659C157.936 35.3523 157.514 35.6496 156.976 35.858C156.442 36.0663 155.83 36.1705 155.141 36.1705C154.47 36.1705 153.87 36.0701 153.339 35.8693C152.813 35.6648 152.394 35.3712 152.084 34.9886C151.773 34.6061 151.608 34.1458 151.589 33.608ZM164.129 36.1705C163.277 36.1705 162.538 35.983 161.913 35.608C161.288 35.233 160.804 34.7083 160.459 34.0341C160.118 33.3598 159.947 32.572 159.947 31.6705C159.947 30.7689 160.118 29.9792 160.459 29.3011C160.804 28.6231 161.288 28.0966 161.913 27.7216C162.538 27.3466 163.277 27.1591 164.129 27.1591C164.982 27.1591 165.72 27.3466 166.345 27.7216C166.97 28.0966 167.453 28.6231 167.794 29.3011C168.139 29.9792 168.311 30.7689 168.311 31.6705C168.311 32.572 168.139 33.3598 167.794 34.0341C167.453 34.7083 166.97 35.233 166.345 35.608C165.72 35.983 164.982 36.1705 164.129 36.1705ZM164.141 34.5227C164.603 34.5227 164.989 34.3958 165.3 34.142C165.61 33.8845 165.841 33.5398 165.993 33.108C166.148 32.6761 166.226 32.1951 166.226 31.6648C166.226 31.1307 166.148 30.6477 165.993 30.2159C165.841 29.7803 165.61 29.4337 165.3 29.1761C164.989 28.9186 164.603 28.7898 164.141 28.7898C163.667 28.7898 163.273 28.9186 162.959 29.1761C162.648 29.4337 162.415 29.7803 162.26 30.2159C162.108 30.6477 162.033 31.1307 162.033 31.6648C162.033 32.1951 162.108 32.6761 162.26 33.108C162.415 33.5398 162.648 33.8845 162.959 34.142C163.273 34.3958 163.667 34.5227 164.141 34.5227ZM170.057 39.2727V27.2727H172.08V28.7159H172.199C172.305 28.5038 172.455 28.2784 172.648 28.0398C172.841 27.7973 173.102 27.5909 173.432 27.4205C173.761 27.2462 174.182 27.1591 174.693 27.1591C175.367 27.1591 175.975 27.3314 176.517 27.6761C177.063 28.017 177.494 28.5227 177.812 29.1932C178.134 29.8598 178.295 30.678 178.295 31.6477C178.295 32.6061 178.138 33.4205 177.824 34.0909C177.509 34.7614 177.081 35.2727 176.54 35.625C175.998 35.9773 175.384 36.1534 174.699 36.1534C174.199 36.1534 173.784 36.0701 173.455 35.9034C173.125 35.7367 172.86 35.536 172.659 35.3011C172.462 35.0625 172.309 34.8371 172.199 34.625H172.114V39.2727H170.057ZM172.074 31.6364C172.074 32.2008 172.153 32.6951 172.312 33.1193C172.475 33.5436 172.708 33.875 173.011 34.1136C173.318 34.3485 173.689 34.4659 174.125 34.4659C174.58 34.4659 174.96 34.3447 175.267 34.1023C175.574 33.8561 175.805 33.5208 175.96 33.0966C176.119 32.6686 176.199 32.1818 176.199 31.6364C176.199 31.0947 176.121 30.6136 175.966 30.1932C175.811 29.7727 175.58 29.4432 175.273 29.2045C174.966 28.9659 174.583 28.8466 174.125 28.8466C173.686 28.8466 173.312 28.9621 173.006 29.1932C172.699 29.4242 172.466 29.7481 172.307 30.1648C172.152 30.5814 172.074 31.072 172.074 31.6364Z" fill="white"/>
</svg>
