<svg width="338" height="20" viewBox="0 0 338 20" fill="none" xmlns="http://www.w3.org/2000/svg">
<circle cx="10" cy="10" r="7" stroke="#838383" stroke-width="2"/>
<rect x="9" y="6" width="2" height="5" rx="1" fill="#838383"/>
<rect x="9" y="12" width="2" height="2" rx="1" fill="#838383"/>
<path d="M33.4091 16V4.36364H37.4773C38.2879 4.36364 38.9564 4.50379 39.483 4.78409C40.0095 5.06061 40.4015 5.43371 40.6591 5.90341C40.9167 6.36932 41.0455 6.88636 41.0455 7.45455C41.0455 7.95455 40.9564 8.36742 40.7784 8.69318C40.6042 9.01894 40.3731 9.27652 40.0852 9.46591C39.8011 9.6553 39.4924 9.79545 39.1591 9.88636V10C39.5152 10.0227 39.8731 10.1477 40.233 10.375C40.5928 10.6023 40.8939 10.928 41.1364 11.3523C41.3788 11.7765 41.5 12.2955 41.5 12.9091C41.5 13.4924 41.3674 14.017 41.1023 14.483C40.8371 14.9489 40.4186 15.3182 39.8466 15.5909C39.2746 15.8636 38.5303 16 37.6136 16H33.4091ZM34.8182 14.75H37.6136C38.5341 14.75 39.1875 14.572 39.5739 14.2159C39.964 13.8561 40.1591 13.4205 40.1591 12.9091C40.1591 12.5152 40.0587 12.1515 39.858 11.8182C39.6572 11.4811 39.3712 11.2121 39 11.0114C38.6288 10.8068 38.1894 10.7045 37.6818 10.7045H34.8182V14.75ZM34.8182 9.47727H37.4318C37.8561 9.47727 38.2386 9.39394 38.5795 9.22727C38.9242 9.06061 39.197 8.82576 39.3977 8.52273C39.6023 8.2197 39.7045 7.86364 39.7045 7.45455C39.7045 6.94318 39.5265 6.50947 39.1705 6.15341C38.8144 5.79356 38.25 5.61364 37.4773 5.61364H34.8182V9.47727ZM47.179 16.1818C46.3608 16.1818 45.6563 15.9886 45.0653 15.6023C44.4744 15.2159 44.0199 14.6837 43.7017 14.0057C43.3835 13.3277 43.2244 12.553 43.2244 11.6818C43.2244 10.7955 43.3873 10.0133 43.7131 9.33523C44.0426 8.65341 44.5009 8.12121 45.0881 7.73864C45.679 7.35227 46.3684 7.15909 47.1562 7.15909C47.7699 7.15909 48.3229 7.27273 48.8153 7.5C49.3078 7.72727 49.7112 8.04545 50.0256 8.45455C50.34 8.86364 50.535 9.34091 50.6108 9.88636H49.2699C49.1676 9.48864 48.9403 9.13636 48.5881 8.82955C48.2396 8.51894 47.7699 8.36364 47.179 8.36364C46.6563 8.36364 46.1979 8.5 45.804 8.77273C45.4138 9.04167 45.1089 9.42235 44.8892 9.91477C44.6733 10.4034 44.5653 10.9773 44.5653 11.6364C44.5653 12.3106 44.6714 12.8977 44.8835 13.3977C45.0994 13.8977 45.4025 14.286 45.7926 14.5625C46.1866 14.839 46.6487 14.9773 47.179 14.9773C47.5275 14.9773 47.8438 14.9167 48.1278 14.7955C48.4119 14.6742 48.6525 14.5 48.8494 14.2727C49.0464 14.0455 49.1866 13.7727 49.2699 13.4545H50.6108C50.535 13.9697 50.3475 14.4337 50.0483 14.8466C49.7528 15.2557 49.3608 15.5814 48.8722 15.8239C48.3873 16.0625 47.8229 16.1818 47.179 16.1818ZM56.2301 16.1818C55.3892 16.1818 54.6638 15.9962 54.054 15.625C53.4479 15.25 52.9801 14.7273 52.6506 14.0568C52.3248 13.3826 52.1619 12.5985 52.1619 11.7045C52.1619 10.8106 52.3248 10.0227 52.6506 9.34091C52.9801 8.6553 53.4384 8.12121 54.0256 7.73864C54.6165 7.35227 55.3059 7.15909 56.0938 7.15909C56.5483 7.15909 56.9972 7.23485 57.4403 7.38636C57.8835 7.53788 58.2869 7.78409 58.6506 8.125C59.0142 8.46212 59.304 8.90909 59.5199 9.46591C59.7358 10.0227 59.8438 10.7083 59.8438 11.5227V12.0909H53.1165V10.9318H58.4801C58.4801 10.4394 58.3816 10 58.1847 9.61364C57.9915 9.22727 57.715 8.92235 57.3551 8.69886C56.9991 8.47538 56.5786 8.36364 56.0938 8.36364C55.5597 8.36364 55.0975 8.49621 54.7074 8.76136C54.321 9.02273 54.0237 9.36364 53.8153 9.78409C53.607 10.2045 53.5028 10.6553 53.5028 11.1364V11.9091C53.5028 12.5682 53.6165 13.1269 53.8438 13.5852C54.0748 14.0398 54.3949 14.3864 54.804 14.625C55.2131 14.8598 55.6884 14.9773 56.2301 14.9773C56.5824 14.9773 56.9006 14.928 57.1847 14.8295C57.4725 14.7273 57.7206 14.5758 57.929 14.375C58.1373 14.1705 58.2983 13.9167 58.4119 13.6136L59.7074 13.9773C59.571 14.4167 59.3419 14.803 59.0199 15.1364C58.6979 15.4659 58.3002 15.7235 57.8267 15.9091C57.3532 16.0909 56.821 16.1818 56.2301 16.1818ZM66.3835 16V7.27273H73.2472V16H71.9062V8.52273H67.7244V16H66.3835ZM79.2415 16.1818C78.4536 16.1818 77.7623 15.9943 77.1676 15.6193C76.5767 15.2443 76.1146 14.7197 75.7812 14.0455C75.4517 13.3712 75.2869 12.5833 75.2869 11.6818C75.2869 10.7727 75.4517 9.97917 75.7812 9.30114C76.1146 8.62311 76.5767 8.09659 77.1676 7.72159C77.7623 7.34659 78.4536 7.15909 79.2415 7.15909C80.0294 7.15909 80.7188 7.34659 81.3097 7.72159C81.9044 8.09659 82.3665 8.62311 82.696 9.30114C83.0294 9.97917 83.196 10.7727 83.196 11.6818C83.196 12.5833 83.0294 13.3712 82.696 14.0455C82.3665 14.7197 81.9044 15.2443 81.3097 15.6193C80.7188 15.9943 80.0294 16.1818 79.2415 16.1818ZM79.2415 14.9773C79.84 14.9773 80.3324 14.8239 80.7188 14.517C81.1051 14.2102 81.3911 13.8068 81.5767 13.3068C81.7623 12.8068 81.8551 12.2652 81.8551 11.6818C81.8551 11.0985 81.7623 10.5549 81.5767 10.0511C81.3911 9.54735 81.1051 9.14015 80.7188 8.82955C80.3324 8.51894 79.84 8.36364 79.2415 8.36364C78.643 8.36364 78.1506 8.51894 77.7642 8.82955C77.3778 9.14015 77.0919 9.54735 76.9062 10.0511C76.7206 10.5549 76.6278 11.0985 76.6278 11.6818C76.6278 12.2652 76.7206 12.8068 76.9062 13.3068C77.0919 13.8068 77.3778 14.2102 77.7642 14.517C78.1506 14.8239 78.643 14.9773 79.2415 14.9773ZM84.4702 16V14.75H84.7884C85.0497 14.75 85.2675 14.6989 85.4418 14.5966C85.616 14.4905 85.7562 14.3068 85.8622 14.0455C85.9721 13.7803 86.0554 13.4129 86.1122 12.9432C86.1728 12.4697 86.2164 11.8674 86.2429 11.1364L86.402 7.27273H92.2202V16H90.8793V8.52273H87.6747L87.5384 11.6364C87.508 12.3523 87.4437 12.983 87.3452 13.5284C87.2505 14.0701 87.1046 14.5246 86.9077 14.892C86.7145 15.2595 86.4569 15.536 86.1349 15.7216C85.813 15.9072 85.4096 16 84.9247 16H84.4702ZM99.9304 16V8.5H97.6122C97.0895 8.5 96.6785 8.62121 96.3793 8.86364C96.08 9.10606 95.9304 9.43939 95.9304 9.86364C95.9304 10.2803 96.0649 10.608 96.3338 10.8466C96.6065 11.0852 96.9796 11.2045 97.4531 11.2045H100.271V12.4545H97.4531C96.8622 12.4545 96.3527 12.3504 95.9247 12.142C95.4967 11.9337 95.1671 11.6364 94.9361 11.25C94.705 10.8598 94.5895 10.3977 94.5895 9.86364C94.5895 9.32576 94.7107 8.86364 94.9531 8.47727C95.1955 8.09091 95.5421 7.79356 95.9929 7.58523C96.4474 7.37689 96.9872 7.27273 97.6122 7.27273H101.203V16H99.9304ZM94.1122 16L96.5895 11.6591H98.044L95.5668 16H94.1122ZM111.71 16.1818C110.922 16.1818 110.231 15.9943 109.636 15.6193C109.045 15.2443 108.583 14.7197 108.25 14.0455C107.92 13.3712 107.756 12.5833 107.756 11.6818C107.756 10.7727 107.92 9.97917 108.25 9.30114C108.583 8.62311 109.045 8.09659 109.636 7.72159C110.231 7.34659 110.922 7.15909 111.71 7.15909C112.498 7.15909 113.188 7.34659 113.778 7.72159C114.373 8.09659 114.835 8.62311 115.165 9.30114C115.498 9.97917 115.665 10.7727 115.665 11.6818C115.665 12.5833 115.498 13.3712 115.165 14.0455C114.835 14.7197 114.373 15.2443 113.778 15.6193C113.188 15.9943 112.498 16.1818 111.71 16.1818ZM111.71 14.9773C112.309 14.9773 112.801 14.8239 113.188 14.517C113.574 14.2102 113.86 13.8068 114.045 13.3068C114.231 12.8068 114.324 12.2652 114.324 11.6818C114.324 11.0985 114.231 10.5549 114.045 10.0511C113.86 9.54735 113.574 9.14015 113.188 8.82955C112.801 8.51894 112.309 8.36364 111.71 8.36364C111.112 8.36364 110.619 8.51894 110.233 8.82955C109.847 9.14015 109.561 9.54735 109.375 10.0511C109.189 10.5549 109.097 11.0985 109.097 11.6818C109.097 12.2652 109.189 12.8068 109.375 13.3068C109.561 13.8068 109.847 14.2102 110.233 14.517C110.619 14.8239 111.112 14.9773 111.71 14.9773ZM124.189 4L124.871 4.81818C124.606 5.07576 124.299 5.25568 123.95 5.35795C123.602 5.46023 123.208 5.52273 122.768 5.54545C122.329 5.56818 121.84 5.59091 121.303 5.61364C120.696 5.63636 120.195 5.78409 119.797 6.05682C119.399 6.32955 119.092 6.72348 118.876 7.23864C118.661 7.75379 118.522 8.38636 118.462 9.13636H118.575C118.871 8.59091 119.28 8.18939 119.803 7.93182C120.325 7.67424 120.886 7.54545 121.484 7.54545C122.166 7.54545 122.78 7.70455 123.325 8.02273C123.871 8.34091 124.303 8.8125 124.621 9.4375C124.939 10.0625 125.098 10.8333 125.098 11.75C125.098 12.6629 124.935 13.4508 124.609 14.1136C124.287 14.7765 123.835 15.2879 123.251 15.6477C122.672 16.0038 121.992 16.1818 121.212 16.1818C120.431 16.1818 119.748 15.9981 119.161 15.6307C118.573 15.2595 118.117 14.7102 117.791 13.983C117.465 13.2519 117.303 12.3485 117.303 11.2727V10.3409C117.303 8.39773 117.632 6.92424 118.291 5.92045C118.954 4.91667 119.95 4.39773 121.28 4.36364C121.75 4.34848 122.168 4.3447 122.536 4.35227C122.903 4.35985 123.223 4.3428 123.496 4.30114C123.768 4.25947 124 4.15909 124.189 4ZM121.212 14.9773C121.738 14.9773 122.191 14.8447 122.57 14.5795C122.952 14.3144 123.246 13.9413 123.45 13.4602C123.655 12.9754 123.757 12.4053 123.757 11.75C123.757 11.1136 123.653 10.572 123.445 10.125C123.24 9.67803 122.946 9.33712 122.564 9.10227C122.181 8.86742 121.723 8.75 121.189 8.75C120.799 8.75 120.448 8.81629 120.138 8.94886C119.827 9.08144 119.562 9.27651 119.342 9.53409C119.123 9.79167 118.952 10.1061 118.831 10.4773C118.714 10.8485 118.651 11.2727 118.643 11.75C118.643 12.7273 118.873 13.5095 119.331 14.0966C119.789 14.6837 120.416 14.9773 121.212 14.9773ZM132.399 16V8.5H130.081C129.558 8.5 129.147 8.62121 128.848 8.86364C128.549 9.10606 128.399 9.43939 128.399 9.86364C128.399 10.2803 128.534 10.608 128.803 10.8466C129.075 11.0852 129.448 11.2045 129.922 11.2045H132.74V12.4545H129.922C129.331 12.4545 128.821 12.3504 128.393 12.142C127.965 11.9337 127.636 11.6364 127.405 11.25C127.174 10.8598 127.058 10.3977 127.058 9.86364C127.058 9.32576 127.179 8.86364 127.422 8.47727C127.664 8.09091 128.011 7.79356 128.462 7.58523C128.916 7.37689 129.456 7.27273 130.081 7.27273H133.672V16H132.399ZM126.581 16L129.058 11.6591H130.513L128.036 16H126.581ZM135.588 13.7727H137.02C137.05 14.1667 137.228 14.4659 137.554 14.6705C137.884 14.875 138.312 14.9773 138.838 14.9773C139.376 14.9773 139.836 14.8674 140.219 14.6477C140.601 14.4242 140.793 14.0644 140.793 13.5682C140.793 13.2765 140.721 13.0227 140.577 12.8068C140.433 12.5871 140.23 12.4167 139.969 12.2955C139.707 12.1742 139.399 12.1136 139.043 12.1136H137.543V10.9091H139.043C139.577 10.9091 139.971 10.7879 140.224 10.5455C140.482 10.303 140.611 10 140.611 9.63636C140.611 9.24621 140.473 8.93371 140.196 8.69886C139.92 8.46023 139.527 8.34091 139.02 8.34091C138.509 8.34091 138.082 8.45644 137.741 8.6875C137.401 8.91477 137.221 9.20833 137.202 9.56818H135.793C135.808 9.09848 135.952 8.68371 136.224 8.32386C136.497 7.96023 136.868 7.67614 137.338 7.47159C137.808 7.26326 138.346 7.15909 138.952 7.15909C139.565 7.15909 140.098 7.26705 140.548 7.48295C141.003 7.69508 141.353 7.98485 141.599 8.35227C141.849 8.71591 141.974 9.12879 141.974 9.59091C141.974 10.0833 141.836 10.4811 141.56 10.7841C141.283 11.0871 140.937 11.303 140.52 11.4318V11.5227C140.849 11.5455 141.135 11.6515 141.378 11.8409C141.624 12.0265 141.815 12.2708 141.952 12.5739C142.088 12.8731 142.156 13.2045 142.156 13.5682C142.156 14.0985 142.014 14.5606 141.73 14.9545C141.446 15.3447 141.056 15.6477 140.56 15.8636C140.063 16.0758 139.497 16.1818 138.861 16.1818C138.243 16.1818 137.69 16.0814 137.202 15.8807C136.713 15.6761 136.325 15.3939 136.037 15.0341C135.753 14.6705 135.603 14.25 135.588 13.7727ZM146.608 16.2045C146.055 16.2045 145.553 16.1004 145.102 15.892C144.652 15.6799 144.294 15.375 144.028 14.9773C143.763 14.5758 143.631 14.0909 143.631 13.5227C143.631 13.0227 143.729 12.6174 143.926 12.3068C144.123 11.9924 144.386 11.7462 144.716 11.5682C145.045 11.3902 145.409 11.2576 145.807 11.1705C146.208 11.0795 146.612 11.0076 147.017 10.9545C147.547 10.8864 147.977 10.8352 148.307 10.8011C148.64 10.7633 148.883 10.7008 149.034 10.6136C149.189 10.5265 149.267 10.375 149.267 10.1591V10.1136C149.267 9.55303 149.114 9.11742 148.807 8.80682C148.504 8.49621 148.044 8.34091 147.426 8.34091C146.786 8.34091 146.284 8.48106 145.92 8.76136C145.557 9.04167 145.301 9.34091 145.153 9.65909L143.881 9.20455C144.108 8.67424 144.411 8.26136 144.79 7.96591C145.172 7.66667 145.589 7.45833 146.04 7.34091C146.494 7.2197 146.941 7.15909 147.381 7.15909C147.661 7.15909 147.983 7.19318 148.347 7.26136C148.714 7.32576 149.068 7.46023 149.409 7.66477C149.754 7.86932 150.04 8.17803 150.267 8.59091C150.494 9.00379 150.608 9.55682 150.608 10.25V16H149.267V14.8182H149.199C149.108 15.0076 148.956 15.2102 148.744 15.4261C148.532 15.642 148.25 15.8258 147.898 15.9773C147.545 16.1288 147.116 16.2045 146.608 16.2045ZM146.812 15C147.343 15 147.79 14.8958 148.153 14.6875C148.521 14.4792 148.797 14.2102 148.983 13.8807C149.172 13.5511 149.267 13.2045 149.267 12.8409V11.6136C149.21 11.6818 149.085 11.7443 148.892 11.8011C148.703 11.8542 148.483 11.9015 148.233 11.9432C147.987 11.9811 147.746 12.0152 147.511 12.0455C147.28 12.072 147.093 12.0947 146.949 12.1136C146.6 12.1591 146.275 12.233 145.972 12.3352C145.672 12.4337 145.43 12.5833 145.244 12.7841C145.063 12.9811 144.972 13.25 144.972 13.5909C144.972 14.0568 145.144 14.4091 145.489 14.6477C145.837 14.8826 146.278 15 146.812 15ZM151.868 8.52273V7.27273H158.959V8.52273H156.095V16H154.754V8.52273H151.868ZM164.121 16.1818C163.28 16.1818 162.554 15.9962 161.945 15.625C161.339 15.25 160.871 14.7273 160.541 14.0568C160.215 13.3826 160.053 12.5985 160.053 11.7045C160.053 10.8106 160.215 10.0227 160.541 9.34091C160.871 8.6553 161.329 8.12121 161.916 7.73864C162.507 7.35227 163.196 7.15909 163.984 7.15909C164.439 7.15909 164.888 7.23485 165.331 7.38636C165.774 7.53788 166.178 7.78409 166.541 8.125C166.905 8.46212 167.195 8.90909 167.411 9.46591C167.626 10.0227 167.734 10.7083 167.734 11.5227V12.0909H161.007V10.9318H166.371C166.371 10.4394 166.272 10 166.075 9.61364C165.882 9.22727 165.606 8.92235 165.246 8.69886C164.89 8.47538 164.469 8.36364 163.984 8.36364C163.45 8.36364 162.988 8.49621 162.598 8.76136C162.212 9.02273 161.914 9.36364 161.706 9.78409C161.498 10.2045 161.393 10.6553 161.393 11.1364V11.9091C161.393 12.5682 161.507 13.1269 161.734 13.5852C161.965 14.0398 162.286 14.3864 162.695 14.625C163.104 14.8598 163.579 14.9773 164.121 14.9773C164.473 14.9773 164.791 14.928 165.075 14.8295C165.363 14.7273 165.611 14.5758 165.82 14.375C166.028 14.1705 166.189 13.9167 166.303 13.6136L167.598 13.9773C167.462 14.4167 167.232 14.803 166.911 15.1364C166.589 15.4659 166.191 15.7235 165.717 15.9091C165.244 16.0909 164.712 16.1818 164.121 16.1818ZM169.001 16V14.75H169.32C169.581 14.75 169.799 14.6989 169.973 14.5966C170.147 14.4905 170.287 14.3068 170.393 14.0455C170.503 13.7803 170.587 13.4129 170.643 12.9432C170.704 12.4697 170.748 11.8674 170.774 11.1364L170.933 7.27273H176.751V16H175.411V8.52273H172.206L172.07 11.6364C172.039 12.3523 171.975 12.983 171.876 13.5284C171.782 14.0701 171.636 14.5246 171.439 14.892C171.246 15.2595 170.988 15.536 170.666 15.7216C170.344 15.9072 169.941 16 169.456 16H169.001ZM180.371 10.4318H182.871C183.893 10.4318 184.676 10.6913 185.217 11.2102C185.759 11.7292 186.03 12.3864 186.03 13.1818C186.03 13.7045 185.909 14.1799 185.666 14.608C185.424 15.0322 185.068 15.3712 184.598 15.625C184.128 15.875 183.553 16 182.871 16H179.212V7.27273H180.553V14.75H182.871C183.401 14.75 183.837 14.6098 184.178 14.3295C184.518 14.0492 184.689 13.6894 184.689 13.25C184.689 12.7879 184.518 12.411 184.178 12.1193C183.837 11.8277 183.401 11.6818 182.871 11.6818H180.371V10.4318ZM193.912 11.0227V12.2727H189.094V11.0227H193.912ZM189.412 7.27273V16H188.071V7.27273H189.412ZM194.935 7.27273V16H193.594V7.27273H194.935ZM198.543 10.4318H201.043C202.065 10.4318 202.848 10.6913 203.389 11.2102C203.931 11.7292 204.202 12.3864 204.202 13.1818C204.202 13.7045 204.08 14.1799 203.838 14.608C203.596 15.0322 203.24 15.3712 202.77 15.625C202.3 15.875 201.724 16 201.043 16H197.384V7.27273H198.724V14.75H201.043C201.573 14.75 202.009 14.6098 202.349 14.3295C202.69 14.0492 202.861 13.6894 202.861 13.25C202.861 12.7879 202.69 12.411 202.349 12.1193C202.009 11.8277 201.573 11.6818 201.043 11.6818H198.543V10.4318ZM205.588 16V7.27273H206.929V16H205.588ZM212.952 18.5V14.75H213.679C213.857 14.5644 214.01 14.3636 214.139 14.1477C214.268 13.9318 214.38 13.6761 214.474 13.3807C214.573 13.0814 214.656 12.7178 214.724 12.2898C214.793 11.858 214.853 11.3371 214.906 10.7273L215.202 7.27273H220.747V14.75H222.088V18.5H220.747V16H214.293V18.5H212.952ZM215.202 14.75H219.406V8.52273H216.452L216.224 10.7273C216.13 11.6402 216.012 12.4375 215.872 13.1193C215.732 13.8011 215.509 14.3447 215.202 14.75ZM223.095 16V14.75H223.413C223.675 14.75 223.893 14.6989 224.067 14.5966C224.241 14.4905 224.381 14.3068 224.487 14.0455C224.597 13.7803 224.68 13.4129 224.737 12.9432C224.798 12.4697 224.841 11.8674 224.868 11.1364L225.027 7.27273H230.845V16H229.504V8.52273H226.3L226.163 11.6364C226.133 12.3523 226.069 12.983 225.97 13.5284C225.875 14.0701 225.73 14.5246 225.533 14.892C225.339 15.2595 225.082 15.536 224.76 15.7216C224.438 15.9072 224.035 16 223.55 16H223.095ZM238.555 16V8.5H236.237C235.714 8.5 235.304 8.62121 235.004 8.86364C234.705 9.10606 234.555 9.43939 234.555 9.86364C234.555 10.2803 234.69 10.608 234.959 10.8466C235.232 11.0852 235.605 11.2045 236.078 11.2045H238.896V12.4545H236.078C235.487 12.4545 234.978 12.3504 234.55 12.142C234.122 11.9337 233.792 11.6364 233.561 11.25C233.33 10.8598 233.214 10.3977 233.214 9.86364C233.214 9.32576 233.336 8.86364 233.578 8.47727C233.821 8.09091 234.167 7.79356 234.618 7.58523C235.072 7.37689 235.612 7.27273 236.237 7.27273H239.828V16H238.555ZM232.737 16L235.214 11.6591H236.669L234.192 16H232.737ZM246.244 13.7727H247.676C247.706 14.1667 247.884 14.4659 248.21 14.6705C248.54 14.875 248.968 14.9773 249.494 14.9773C250.032 14.9773 250.492 14.8674 250.875 14.6477C251.258 14.4242 251.449 14.0644 251.449 13.5682C251.449 13.2765 251.377 13.0227 251.233 12.8068C251.089 12.5871 250.886 12.4167 250.625 12.2955C250.364 12.1742 250.055 12.1136 249.699 12.1136H248.199V10.9091H249.699C250.233 10.9091 250.627 10.7879 250.881 10.5455C251.138 10.303 251.267 10 251.267 9.63636C251.267 9.24621 251.129 8.93371 250.852 8.69886C250.576 8.46023 250.184 8.34091 249.676 8.34091C249.165 8.34091 248.739 8.45644 248.398 8.6875C248.057 8.91477 247.877 9.20833 247.858 9.56818H246.449C246.464 9.09848 246.608 8.68371 246.881 8.32386C247.153 7.96023 247.525 7.67614 247.994 7.47159C248.464 7.26326 249.002 7.15909 249.608 7.15909C250.222 7.15909 250.754 7.26705 251.205 7.48295C251.659 7.69508 252.009 7.98485 252.256 8.35227C252.506 8.71591 252.631 9.12879 252.631 9.59091C252.631 10.0833 252.492 10.4811 252.216 10.7841C251.939 11.0871 251.593 11.303 251.176 11.4318V11.5227C251.506 11.5455 251.792 11.6515 252.034 11.8409C252.28 12.0265 252.472 12.2708 252.608 12.5739C252.744 12.8731 252.812 13.2045 252.812 13.5682C252.812 14.0985 252.67 14.5606 252.386 14.9545C252.102 15.3447 251.712 15.6477 251.216 15.8636C250.72 16.0758 250.153 16.1818 249.517 16.1818C248.9 16.1818 248.347 16.0814 247.858 15.8807C247.369 15.6761 246.981 15.3939 246.693 15.0341C246.409 14.6705 246.259 14.25 246.244 13.7727ZM257.264 16.2045C256.711 16.2045 256.209 16.1004 255.759 15.892C255.308 15.6799 254.95 15.375 254.685 14.9773C254.42 14.5758 254.287 14.0909 254.287 13.5227C254.287 13.0227 254.385 12.6174 254.582 12.3068C254.779 11.9924 255.043 11.7462 255.372 11.5682C255.702 11.3902 256.065 11.2576 256.463 11.1705C256.865 11.0795 257.268 11.0076 257.673 10.9545C258.204 10.8864 258.634 10.8352 258.963 10.8011C259.296 10.7633 259.539 10.7008 259.69 10.6136C259.846 10.5265 259.923 10.375 259.923 10.1591V10.1136C259.923 9.55303 259.77 9.11742 259.463 8.80682C259.16 8.49621 258.7 8.34091 258.082 8.34091C257.442 8.34091 256.94 8.48106 256.577 8.76136C256.213 9.04167 255.957 9.34091 255.81 9.65909L254.537 9.20455C254.764 8.67424 255.067 8.26136 255.446 7.96591C255.829 7.66667 256.245 7.45833 256.696 7.34091C257.151 7.2197 257.598 7.15909 258.037 7.15909C258.317 7.15909 258.639 7.19318 259.003 7.26136C259.37 7.32576 259.724 7.46023 260.065 7.66477C260.41 7.86932 260.696 8.17803 260.923 8.59091C261.151 9.00379 261.264 9.55682 261.264 10.25V16H259.923V14.8182H259.855C259.764 15.0076 259.613 15.2102 259.401 15.4261C259.188 15.642 258.906 15.8258 258.554 15.9773C258.202 16.1288 257.772 16.2045 257.264 16.2045ZM257.469 15C257.999 15 258.446 14.8958 258.81 14.6875C259.177 14.4792 259.454 14.2102 259.639 13.8807C259.829 13.5511 259.923 13.2045 259.923 12.8409V11.6136C259.866 11.6818 259.741 11.7443 259.548 11.8011C259.359 11.8542 259.139 11.9015 258.889 11.9432C258.643 11.9811 258.402 12.0152 258.168 12.0455C257.937 12.072 257.749 12.0947 257.605 12.1136C257.257 12.1591 256.931 12.233 256.628 12.3352C256.329 12.4337 256.086 12.5833 255.901 12.7841C255.719 12.9811 255.628 13.25 255.628 13.5909C255.628 14.0568 255.8 14.4091 256.145 14.6477C256.493 14.8826 256.935 15 257.469 15ZM263.712 16V7.27273H270.575V16H269.234V8.52273H265.053V16H263.712ZM276.57 16.1818C275.782 16.1818 275.09 15.9943 274.496 15.6193C273.905 15.2443 273.443 14.7197 273.109 14.0455C272.78 13.3712 272.615 12.5833 272.615 11.6818C272.615 10.7727 272.78 9.97917 273.109 9.30114C273.443 8.62311 273.905 8.09659 274.496 7.72159C275.09 7.34659 275.782 7.15909 276.57 7.15909C277.357 7.15909 278.047 7.34659 278.638 7.72159C279.232 8.09659 279.695 8.62311 280.024 9.30114C280.357 9.97917 280.524 10.7727 280.524 11.6818C280.524 12.5833 280.357 13.3712 280.024 14.0455C279.695 14.7197 279.232 15.2443 278.638 15.6193C278.047 15.9943 277.357 16.1818 276.57 16.1818ZM276.57 14.9773C277.168 14.9773 277.661 14.8239 278.047 14.517C278.433 14.2102 278.719 13.8068 278.905 13.3068C279.09 12.8068 279.183 12.2652 279.183 11.6818C279.183 11.0985 279.09 10.5549 278.905 10.0511C278.719 9.54735 278.433 9.14015 278.047 8.82955C277.661 8.51894 277.168 8.36364 276.57 8.36364C275.971 8.36364 275.479 8.51894 275.092 8.82955C274.706 9.14015 274.42 9.54735 274.234 10.0511C274.049 10.5549 273.956 11.0985 273.956 11.6818C273.956 12.2652 274.049 12.8068 274.234 13.3068C274.42 13.8068 274.706 14.2102 275.092 14.517C275.479 14.8239 275.971 14.9773 276.57 14.9773ZM281.798 16V14.75H282.116C282.378 14.75 282.596 14.6989 282.77 14.5966C282.944 14.4905 283.084 14.3068 283.19 14.0455C283.3 13.7803 283.384 13.4129 283.44 12.9432C283.501 12.4697 283.545 11.8674 283.571 11.1364L283.73 7.27273H289.548V16H288.207V8.52273H285.003L284.866 11.6364C284.836 12.3523 284.772 12.983 284.673 13.5284C284.579 14.0701 284.433 14.5246 284.236 14.892C284.043 15.2595 283.785 15.536 283.463 15.7216C283.141 15.9072 282.738 16 282.253 16H281.798ZM297.849 11.0227V12.2727H293.031V11.0227H297.849ZM293.349 7.27273V16H292.009V7.27273H293.349ZM298.872 7.27273V16H297.531V7.27273H298.872ZM304.98 16.1818C304.139 16.1818 303.414 15.9962 302.804 15.625C302.198 15.25 301.73 14.7273 301.401 14.0568C301.075 13.3826 300.912 12.5985 300.912 11.7045C300.912 10.8106 301.075 10.0227 301.401 9.34091C301.73 8.6553 302.188 8.12121 302.776 7.73864C303.366 7.35227 304.056 7.15909 304.844 7.15909C305.298 7.15909 305.747 7.23485 306.19 7.38636C306.634 7.53788 307.037 7.78409 307.401 8.125C307.764 8.46212 308.054 8.90909 308.27 9.46591C308.486 10.0227 308.594 10.7083 308.594 11.5227V12.0909H301.866V10.9318H307.23C307.23 10.4394 307.132 10 306.935 9.61364C306.741 9.22727 306.465 8.92235 306.105 8.69886C305.749 8.47538 305.329 8.36364 304.844 8.36364C304.31 8.36364 303.848 8.49621 303.457 8.76136C303.071 9.02273 302.774 9.36364 302.565 9.78409C302.357 10.2045 302.253 10.6553 302.253 11.1364V11.9091C302.253 12.5682 302.366 13.1269 302.594 13.5852C302.825 14.0398 303.145 14.3864 303.554 14.625C303.963 14.8598 304.438 14.9773 304.98 14.9773C305.332 14.9773 305.651 14.928 305.935 14.8295C306.223 14.7273 306.471 14.5758 306.679 14.375C306.887 14.1705 307.048 13.9167 307.162 13.6136L308.457 13.9773C308.321 14.4167 308.092 14.803 307.77 15.1364C307.448 15.4659 307.05 15.7235 306.577 15.9091C306.103 16.0909 305.571 16.1818 304.98 16.1818ZM316.474 11.0227V12.2727H311.656V11.0227H316.474ZM311.974 7.27273V16H310.634V7.27273H311.974ZM317.497 7.27273V16H316.156V7.27273H317.497ZM321.287 14.0227L325.491 7.27273H327.037V16H325.696V9.25L321.514 16H319.946V7.27273H321.287V14.0227ZM334.743 16V8.5H332.425C331.902 8.5 331.491 8.62121 331.192 8.86364C330.893 9.10606 330.743 9.43939 330.743 9.86364C330.743 10.2803 330.877 10.608 331.146 10.8466C331.419 11.0852 331.792 11.2045 332.266 11.2045H335.084V12.4545H332.266C331.675 12.4545 331.165 12.3504 330.737 12.142C330.309 11.9337 329.98 11.6364 329.749 11.25C329.518 10.8598 329.402 10.3977 329.402 9.86364C329.402 9.32576 329.523 8.86364 329.766 8.47727C330.008 8.09091 330.355 7.79356 330.805 7.58523C331.26 7.37689 331.8 7.27273 332.425 7.27273H336.016V16H334.743ZM328.925 16L331.402 11.6591H332.857L330.379 16H328.925Z" fill="#838383"/>
</svg>
