<svg width="213" height="44" viewBox="0 0 213 44" fill="none" xmlns="http://www.w3.org/2000/svg">
<path d="M70.4964 9.32599H68.1058C68.0376 8.93395 67.9119 8.58665 67.7287 8.28409C67.5455 7.97727 67.3175 7.71733 67.0447 7.50426C66.772 7.29119 66.4609 7.13139 66.1115 7.02486C65.7663 6.91406 65.3935 6.85866 64.9929 6.85866C64.2813 6.85866 63.6506 7.03764 63.1009 7.3956C62.5511 7.74929 62.1207 8.26918 61.8097 8.95526C61.4986 9.63707 61.343 10.4702 61.343 11.4545C61.343 12.456 61.4986 13.2997 61.8097 13.9858C62.125 14.6676 62.5554 15.1832 63.1009 15.5327C63.6506 15.8778 64.2791 16.0504 64.9865 16.0504C65.3786 16.0504 65.745 15.9993 66.0859 15.897C66.4311 15.7905 66.7401 15.6349 67.0128 15.4304C67.2898 15.2259 67.522 14.9744 67.7095 14.6761C67.9013 14.3778 68.0334 14.0369 68.1058 13.6534L70.4964 13.6662C70.407 14.2884 70.2131 14.8722 69.9148 15.4176C69.6207 15.9631 69.2351 16.4446 68.7578 16.8622C68.2805 17.2756 67.7223 17.5994 67.0831 17.8338C66.4439 18.0639 65.7344 18.179 64.9545 18.179C63.804 18.179 62.777 17.9126 61.8736 17.38C60.9702 16.8473 60.2585 16.0781 59.7386 15.0724C59.2188 14.0668 58.9588 12.8608 58.9588 11.4545C58.9588 10.044 59.2209 8.83807 59.745 7.83665C60.2692 6.83097 60.983 6.06179 61.8864 5.52912C62.7898 4.99645 63.8125 4.73011 64.9545 4.73011C65.6832 4.73011 66.3608 4.83239 66.9872 5.03693C67.6136 5.24148 68.1719 5.5419 68.6619 5.93821C69.152 6.33026 69.5547 6.81179 69.87 7.38281C70.1896 7.94957 70.3984 8.5973 70.4964 9.32599ZM75.3912 18.1982C74.769 18.1982 74.2086 18.0874 73.71 17.8658C73.2157 17.6399 72.8237 17.3075 72.5339 16.8686C72.2484 16.4297 72.1056 15.8885 72.1056 15.245C72.1056 14.6911 72.2079 14.233 72.4125 13.8707C72.617 13.5085 72.8961 13.2188 73.2498 13.0014C73.6035 12.7841 74.002 12.62 74.4451 12.5092C74.8926 12.3942 75.3549 12.3111 75.8322 12.2599C76.4075 12.2003 76.8741 12.147 77.2321 12.1001C77.59 12.049 77.85 11.9723 78.0119 11.87C78.1781 11.7635 78.2612 11.5994 78.2612 11.3778V11.3395C78.2612 10.858 78.1184 10.4851 77.8329 10.2209C77.5474 9.95668 77.1362 9.82457 76.5993 9.82457C76.0325 9.82457 75.5829 9.94815 75.2505 10.1953C74.9224 10.4425 74.7008 10.7344 74.5858 11.071L72.4252 10.7642C72.5957 10.1676 72.877 9.66903 73.269 9.26847C73.661 8.86364 74.1404 8.56108 74.7072 8.3608C75.274 8.15625 75.9004 8.05398 76.5865 8.05398C77.0595 8.05398 77.5304 8.10938 77.9991 8.22017C78.4679 8.33097 78.8961 8.5142 79.2839 8.76989C79.6717 9.02131 79.9828 9.36435 80.2172 9.79901C80.4558 10.2337 80.5751 10.777 80.5751 11.429V18H78.3507V16.6513H78.274C78.1333 16.924 77.9352 17.1797 77.6795 17.4183C77.4281 17.6527 77.1106 17.8423 76.7271 17.9872C76.3478 18.1278 75.9025 18.1982 75.3912 18.1982ZM75.992 16.4979C76.4565 16.4979 76.8592 16.4062 77.2001 16.223C77.541 16.0355 77.8031 15.7884 77.9863 15.4815C78.1738 15.1747 78.2676 14.8402 78.2676 14.478V13.321C78.1951 13.3807 78.0716 13.4361 77.8968 13.4872C77.7264 13.5384 77.5346 13.5831 77.3216 13.6214C77.1085 13.6598 76.8975 13.6939 76.6887 13.7237C76.4799 13.7536 76.2988 13.7791 76.1454 13.8004C75.8002 13.8473 75.4913 13.924 75.2186 14.0305C74.9458 14.1371 74.7306 14.2862 74.573 14.478C74.4153 14.6655 74.3365 14.9084 74.3365 15.2067C74.3365 15.6328 74.492 15.9545 74.8031 16.1719C75.1142 16.3892 75.5105 16.4979 75.992 16.4979ZM85.1326 14.8679L89.0637 8.18182H91.4416V18H89.2044V11.3075L85.286 18H82.9018V8.18182H85.1326V14.8679ZM88.4309 4.80682H90.1632C90.1632 5.55256 89.8926 6.15767 89.3514 6.62216C88.8145 7.08239 88.0858 7.3125 87.1653 7.3125C86.2534 7.3125 85.5268 7.08239 84.9856 6.62216C84.4487 6.15767 84.1824 5.55256 84.1866 4.80682H85.9061C85.9061 5.11364 85.9998 5.38849 86.1873 5.63139C86.3791 5.87003 86.7051 5.98935 87.1653 5.98935C87.617 5.98935 87.9387 5.87003 88.1305 5.63139C88.3265 5.39276 88.4267 5.1179 88.4309 4.80682ZM92.7184 10.0803V8.18182H101.309V10.0803H98.1325V18H95.8952V10.0803H92.7184ZM111.899 18.1918C110.919 18.1918 110.078 17.9766 109.374 17.5462C108.676 17.1158 108.137 16.5213 107.757 15.7628C107.382 15 107.195 14.1222 107.195 13.1293C107.195 12.1321 107.387 11.2521 107.77 10.4893C108.154 9.7223 108.695 9.12571 109.394 8.69957C110.097 8.26918 110.928 8.05398 111.887 8.05398C112.683 8.05398 113.389 8.20099 114.002 8.49503C114.62 8.7848 115.112 9.19602 115.479 9.72869C115.845 10.2571 116.054 10.875 116.105 11.5824H113.894C113.804 11.1094 113.591 10.7152 113.254 10.3999C112.922 10.0803 112.477 9.92045 111.919 9.92045C111.445 9.92045 111.03 10.0483 110.672 10.304C110.314 10.5554 110.035 10.9176 109.835 11.3906C109.639 11.8636 109.541 12.4304 109.541 13.0909C109.541 13.7599 109.639 14.3352 109.835 14.8168C110.031 15.294 110.306 15.6626 110.659 15.9226C111.017 16.1783 111.437 16.3061 111.919 16.3061C112.259 16.3061 112.564 16.2422 112.833 16.1143C113.105 15.9822 113.333 15.7926 113.517 15.5455C113.7 15.2983 113.825 14.9979 113.894 14.6442H116.105C116.05 15.3388 115.845 15.9545 115.492 16.4915C115.138 17.0241 114.656 17.4418 114.047 17.7443C113.438 18.0426 112.722 18.1918 111.899 18.1918ZM126.753 18.1918C125.794 18.1918 124.963 17.9808 124.26 17.5589C123.557 17.1371 123.011 16.5469 122.624 15.7884C122.24 15.0298 122.048 14.1435 122.048 13.1293C122.048 12.1151 122.24 11.2266 122.624 10.4638C123.011 9.70099 123.557 9.10866 124.26 8.68679C124.963 8.26491 125.794 8.05398 126.753 8.05398C127.712 8.05398 128.543 8.26491 129.246 8.68679C129.949 9.10866 130.492 9.70099 130.876 10.4638C131.263 11.2266 131.457 12.1151 131.457 13.1293C131.457 14.1435 131.263 15.0298 130.876 15.7884C130.492 16.5469 129.949 17.1371 129.246 17.5589C128.543 17.9808 127.712 18.1918 126.753 18.1918ZM126.766 16.3381C127.286 16.3381 127.72 16.1953 128.07 15.9098C128.419 15.62 128.679 15.2322 128.849 14.7464C129.024 14.2607 129.112 13.7195 129.112 13.1229C129.112 12.522 129.024 11.9787 128.849 11.4929C128.679 11.0028 128.419 10.6129 128.07 10.3232C127.72 10.0334 127.286 9.88849 126.766 9.88849C126.233 9.88849 125.79 10.0334 125.436 10.3232C125.087 10.6129 124.825 11.0028 124.65 11.4929C124.479 11.9787 124.394 12.522 124.394 13.1229C124.394 13.7195 124.479 14.2607 124.65 14.7464C124.825 15.2322 125.087 15.62 125.436 15.9098C125.79 16.1953 126.233 16.3381 126.766 16.3381ZM141.29 4.55114L142.095 6.04688C141.81 6.29403 141.49 6.47301 141.137 6.58381C140.783 6.6946 140.367 6.76705 139.89 6.80114C139.417 6.83097 138.855 6.85227 138.203 6.86506C137.47 6.8821 136.871 7.0206 136.406 7.28054C135.942 7.54048 135.586 7.93466 135.339 8.46307C135.092 8.98722 134.93 9.65625 134.853 10.4702H134.962C135.269 9.86932 135.699 9.41122 136.253 9.09588C136.807 8.78054 137.457 8.62287 138.203 8.62287C139.017 8.62287 139.735 8.80611 140.357 9.17259C140.983 9.5348 141.471 10.0611 141.82 10.7514C142.174 11.4418 142.351 12.277 142.351 13.2571C142.351 14.267 142.161 15.1428 141.782 15.8842C141.403 16.6214 140.864 17.1903 140.165 17.5909C139.47 17.9915 138.646 18.1918 137.691 18.1918C136.741 18.1918 135.914 17.9851 135.211 17.5717C134.512 17.1541 133.971 16.5384 133.588 15.7244C133.208 14.9062 133.019 13.8984 133.019 12.701V11.8189C133.019 9.50923 133.449 7.78551 134.31 6.64773C135.171 5.50994 136.447 4.9304 138.139 4.90909C138.642 4.90057 139.091 4.89844 139.487 4.9027C139.888 4.90696 140.237 4.88778 140.536 4.84517C140.834 4.80256 141.085 4.70455 141.29 4.55114ZM137.704 16.3381C138.177 16.3381 138.586 16.2166 138.931 15.9737C139.276 15.7266 139.541 15.3771 139.724 14.9254C139.911 14.4737 140.005 13.9389 140.005 13.321C140.005 12.7116 139.911 12.1939 139.724 11.7678C139.536 11.3374 139.27 11.0092 138.925 10.7834C138.58 10.5575 138.169 10.4446 137.691 10.4446C137.333 10.4446 137.012 10.5085 136.726 10.6364C136.441 10.7642 136.198 10.9517 135.997 11.1989C135.797 11.446 135.644 11.7464 135.537 12.1001C135.431 12.4538 135.373 12.8608 135.365 13.321C135.365 14.2457 135.573 14.9808 135.991 15.5263C136.409 16.0675 136.98 16.3381 137.704 16.3381ZM143.776 15.3089H146.071C146.093 15.6754 146.257 15.9588 146.563 16.1591C146.87 16.3594 147.269 16.4595 147.759 16.4595C148.257 16.4595 148.677 16.3509 149.018 16.1335C149.363 15.9119 149.536 15.5774 149.536 15.13C149.536 14.8658 149.47 14.6335 149.338 14.4332C149.205 14.2287 149.02 14.071 148.781 13.9602C148.543 13.8494 148.262 13.794 147.938 13.794H146.436V12.1513H147.938C148.419 12.1513 148.784 12.0405 149.031 11.8189C149.282 11.5973 149.408 11.3182 149.408 10.9815C149.408 10.6193 149.276 10.3253 149.012 10.0994C148.752 9.87358 148.392 9.76065 147.931 9.76065C147.471 9.76065 147.088 9.86506 146.781 10.0739C146.478 10.2827 146.32 10.5511 146.308 10.8793H144.026C144.034 10.3082 144.205 9.81179 144.537 9.38991C144.874 8.96804 145.325 8.63991 145.892 8.40554C146.463 8.17116 147.107 8.05398 147.823 8.05398C148.59 8.05398 149.252 8.16903 149.811 8.39915C150.369 8.62926 150.799 8.95099 151.102 9.36435C151.404 9.77344 151.556 10.255 151.556 10.8089C151.556 11.3416 151.389 11.7827 151.057 12.1321C150.725 12.4773 150.277 12.7244 149.715 12.8736V12.9759C150.102 12.9972 150.452 13.108 150.763 13.3082C151.074 13.5043 151.321 13.7706 151.504 14.1072C151.688 14.4439 151.779 14.8338 151.779 15.277C151.779 15.8778 151.607 16.3977 151.262 16.8366C150.916 17.2713 150.441 17.6058 149.836 17.8402C149.235 18.0746 148.547 18.1918 147.771 18.1918C147.017 18.1918 146.342 18.0788 145.745 17.853C145.153 17.6229 144.682 17.2926 144.333 16.8622C143.983 16.4318 143.798 15.9141 143.776 15.3089ZM157.884 18.1918C156.925 18.1918 156.094 17.9808 155.391 17.5589C154.688 17.1371 154.142 16.5469 153.754 15.7884C153.371 15.0298 153.179 14.1435 153.179 13.1293C153.179 12.1151 153.371 11.2266 153.754 10.4638C154.142 9.70099 154.688 9.10866 155.391 8.68679C156.094 8.26491 156.925 8.05398 157.884 8.05398C158.843 8.05398 159.673 8.26491 160.377 8.68679C161.08 9.10866 161.623 9.70099 162.007 10.4638C162.394 11.2266 162.588 12.1151 162.588 13.1293C162.588 14.1435 162.394 15.0298 162.007 15.7884C161.623 16.5469 161.08 17.1371 160.377 17.5589C159.673 17.9808 158.843 18.1918 157.884 18.1918ZM157.896 16.3381C158.416 16.3381 158.851 16.1953 159.2 15.9098C159.55 15.62 159.81 15.2322 159.98 14.7464C160.155 14.2607 160.242 13.7195 160.242 13.1229C160.242 12.522 160.155 11.9787 159.98 11.4929C159.81 11.0028 159.55 10.6129 159.2 10.3232C158.851 10.0334 158.416 9.88849 157.896 9.88849C157.364 9.88849 156.921 10.0334 156.567 10.3232C156.218 10.6129 155.955 11.0028 155.781 11.4929C155.61 11.9787 155.525 12.522 155.525 13.1229C155.525 13.7195 155.61 14.2607 155.781 14.7464C155.955 15.2322 156.218 15.62 156.567 15.9098C156.921 16.1953 157.364 16.3381 157.896 16.3381ZM164.552 21.6818V8.18182H166.828V9.8054H166.962C167.081 9.56676 167.25 9.31321 167.467 9.04474C167.684 8.77202 167.978 8.53977 168.349 8.34801C168.72 8.15199 169.193 8.05398 169.768 8.05398C170.527 8.05398 171.211 8.24787 171.82 8.63565C172.434 9.01918 172.919 9.58807 173.277 10.3423C173.64 11.0923 173.821 12.0128 173.821 13.1037C173.821 14.1818 173.644 15.098 173.29 15.8523C172.936 16.6065 172.455 17.1818 171.846 17.5781C171.236 17.9744 170.546 18.1726 169.775 18.1726C169.212 18.1726 168.745 18.0788 168.375 17.8913C168.004 17.7038 167.706 17.478 167.48 17.2138C167.258 16.9453 167.086 16.6918 166.962 16.4531H166.866V21.6818H164.552ZM166.821 13.0909C166.821 13.7259 166.911 14.282 167.09 14.7592C167.273 15.2365 167.535 15.6094 167.876 15.8778C168.221 16.142 168.639 16.2741 169.129 16.2741C169.64 16.2741 170.069 16.1378 170.414 15.8651C170.759 15.5881 171.019 15.2109 171.194 14.7337C171.373 14.2521 171.462 13.7045 171.462 13.0909C171.462 12.4815 171.375 11.9403 171.2 11.4673C171.025 10.9943 170.765 10.6236 170.42 10.3551C170.075 10.0866 169.645 9.95241 169.129 9.95241C168.635 9.95241 168.215 10.0824 167.87 10.3423C167.525 10.6023 167.262 10.9666 167.083 11.4354C166.909 11.9041 166.821 12.456 166.821 13.0909ZM178.627 18.1982C178.005 18.1982 177.445 18.0874 176.946 17.8658C176.452 17.6399 176.06 17.3075 175.77 16.8686C175.485 16.4297 175.342 15.8885 175.342 15.245C175.342 14.6911 175.444 14.233 175.649 13.8707C175.853 13.5085 176.132 13.2188 176.486 13.0014C176.84 12.7841 177.238 12.62 177.681 12.5092C178.129 12.3942 178.591 12.3111 179.069 12.2599C179.644 12.2003 180.11 12.147 180.468 12.1001C180.826 12.049 181.086 11.9723 181.248 11.87C181.414 11.7635 181.498 11.5994 181.498 11.3778V11.3395C181.498 10.858 181.355 10.4851 181.069 10.2209C180.784 9.95668 180.373 9.82457 179.836 9.82457C179.269 9.82457 178.819 9.94815 178.487 10.1953C178.159 10.4425 177.937 10.7344 177.822 11.071L175.662 10.7642C175.832 10.1676 176.113 9.66903 176.505 9.26847C176.897 8.86364 177.377 8.56108 177.944 8.3608C178.51 8.15625 179.137 8.05398 179.823 8.05398C180.296 8.05398 180.767 8.10938 181.235 8.22017C181.704 8.33097 182.132 8.5142 182.52 8.76989C182.908 9.02131 183.219 9.36435 183.453 9.79901C183.692 10.2337 183.811 10.777 183.811 11.429V18H181.587V16.6513H181.51C181.37 16.924 181.172 17.1797 180.916 17.4183C180.664 17.6527 180.347 17.8423 179.963 17.9872C179.584 18.1278 179.139 18.1982 178.627 18.1982ZM179.228 16.4979C179.693 16.4979 180.096 16.4062 180.436 16.223C180.777 16.0355 181.039 15.7884 181.223 15.4815C181.41 15.1747 181.504 14.8402 181.504 14.478V13.321C181.431 13.3807 181.308 13.4361 181.133 13.4872C180.963 13.5384 180.771 13.5831 180.558 13.6214C180.345 13.6598 180.134 13.6939 179.925 13.7237C179.716 13.7536 179.535 13.7791 179.382 13.8004C179.037 13.8473 178.728 13.924 178.455 14.0305C178.182 14.1371 177.967 14.2862 177.809 14.478C177.652 14.6655 177.573 14.9084 177.573 15.2067C177.573 15.6328 177.728 15.9545 178.039 16.1719C178.35 16.3892 178.747 16.4979 179.228 16.4979ZM191.789 15.3089L194.703 8.18182H196.57L192.6 18H190.983L187.103 8.18182H188.951L191.789 15.3089ZM188.369 8.18182V18H186.138V8.18182H188.369ZM195.304 18V8.18182H197.516V18H195.304ZM202.08 14.8679L206.011 8.18182H208.389V18H206.152V11.3075L202.233 18H199.849V8.18182H202.08V14.8679ZM63.6442 43.3366V26.9091H65.9645V43.3366H63.6442ZM63.6442 40.1918C62.924 40.1918 62.2656 40.0703 61.669 39.8274C61.0724 39.5845 60.5568 39.2393 60.1222 38.7919C59.6918 38.3445 59.3572 37.8118 59.1186 37.1939C58.8842 36.5717 58.767 35.8835 58.767 35.1293C58.767 34.375 58.8842 33.6868 59.1186 33.0646C59.3572 32.4425 59.6918 31.9077 60.1222 31.4602C60.5568 31.0085 61.0724 30.6612 61.669 30.4183C62.2656 30.1754 62.924 30.054 63.6442 30.054H64.1364V40.1918H63.6442ZM63.6442 38.3253H63.9318V31.9205H63.6442C63.2351 31.9205 62.8729 32.0057 62.5575 32.1761C62.2464 32.3423 61.9844 32.5746 61.7713 32.8729C61.5625 33.1669 61.4027 33.5078 61.2919 33.8956C61.1854 34.2791 61.1321 34.6903 61.1321 35.1293C61.1321 35.7131 61.228 36.2479 61.4197 36.7337C61.6115 37.2152 61.8928 37.6009 62.2635 37.8906C62.6385 38.1804 63.0987 38.3253 63.6442 38.3253ZM65.9645 40.1918H65.4723V30.054H65.9645C66.6847 30.054 67.343 30.1754 67.9396 30.4183C68.5362 30.6612 69.0497 31.0085 69.4801 31.4602C69.9148 31.9077 70.2493 32.4425 70.4837 33.0646C70.7223 33.6868 70.8416 34.375 70.8416 35.1293C70.8416 35.8835 70.7223 36.5717 70.4837 37.1939C70.2493 37.8118 69.9148 38.3445 69.4801 38.7919C69.0497 39.2393 68.5362 39.5845 67.9396 39.8274C67.343 40.0703 66.6847 40.1918 65.9645 40.1918ZM65.9645 38.3253C66.3778 38.3253 66.7401 38.2422 67.0511 38.076C67.3622 37.9098 67.6222 37.6797 67.831 37.3857C68.044 37.0916 68.2038 36.7528 68.3104 36.3693C68.4169 35.9815 68.4702 35.5682 68.4702 35.1293C68.4702 34.5455 68.3764 34.0107 68.1889 33.5249C68.0014 33.0391 67.7202 32.6513 67.3452 32.3615C66.9744 32.0675 66.5142 31.9205 65.9645 31.9205H65.6768V38.3253H65.9645ZM75.0252 36.8679L78.9563 30.1818H81.3342V40H79.0969V33.3075L75.1786 40H72.7944V30.1818H75.0252V36.8679ZM83.0328 40L83.0201 38.0952H83.3588C83.6145 38.0952 83.8297 38.0376 84.0044 37.9226C84.1792 37.8075 84.324 37.6158 84.4391 37.3473C84.5542 37.0746 84.6436 36.7081 84.7076 36.2479C84.7715 35.7876 84.8162 35.2145 84.8418 34.5284L85.0144 30.1818H92.1735V40H89.9363V32.0803H87.1174L86.964 35.2443C86.9256 36.0625 86.834 36.772 86.6891 37.3729C86.5485 37.9695 86.3482 38.4616 86.0882 38.8494C85.8326 39.2372 85.5108 39.527 85.123 39.7188C84.7353 39.9062 84.2772 40 83.7488 40H83.0328ZM96.0694 33.3778H98.965C100.218 33.3778 101.187 33.6825 101.873 34.2919C102.559 34.9013 102.905 35.7003 102.909 36.6889C102.905 37.3324 102.747 37.9034 102.436 38.402C102.129 38.9006 101.682 39.2926 101.094 39.5781C100.51 39.8594 99.8002 40 98.965 40H94.5034V30.1818H96.7342V38.1016H98.965C99.4679 38.1016 99.8812 37.9737 100.205 37.718C100.529 37.4581 100.691 37.1257 100.691 36.7209C100.691 36.2947 100.529 35.9474 100.205 35.679C99.8812 35.4105 99.4679 35.2763 98.965 35.2763H96.0694V33.3778ZM110.543 37.3089L113.457 30.1818H115.324L111.354 40H109.737L105.857 30.1818H107.705L110.543 37.3089ZM107.123 30.1818V40H104.892V30.1818H107.123ZM114.058 40V30.1818H116.27V40H114.058ZM122.886 40.1918C121.927 40.1918 121.096 39.9808 120.393 39.5589C119.69 39.1371 119.144 38.5469 118.756 37.7884C118.373 37.0298 118.181 36.1435 118.181 35.1293C118.181 34.1151 118.373 33.2266 118.756 32.4638C119.144 31.701 119.69 31.1087 120.393 30.6868C121.096 30.2649 121.927 30.054 122.886 30.054C123.844 30.054 124.675 30.2649 125.379 30.6868C126.082 31.1087 126.625 31.701 127.009 32.4638C127.396 33.2266 127.59 34.1151 127.59 35.1293C127.59 36.1435 127.396 37.0298 127.009 37.7884C126.625 38.5469 126.082 39.1371 125.379 39.5589C124.675 39.9808 123.844 40.1918 122.886 40.1918ZM122.898 38.3381C123.418 38.3381 123.853 38.1953 124.202 37.9098C124.552 37.62 124.812 37.2322 124.982 36.7464C125.157 36.2607 125.244 35.7195 125.244 35.1229C125.244 34.522 125.157 33.9787 124.982 33.4929C124.812 33.0028 124.552 32.6129 124.202 32.3232C123.853 32.0334 123.418 31.8885 122.898 31.8885C122.366 31.8885 121.923 32.0334 121.569 32.3232C121.219 32.6129 120.957 33.0028 120.783 33.4929C120.612 33.9787 120.527 34.522 120.527 35.1229C120.527 35.7195 120.612 36.2607 120.783 36.7464C120.957 37.2322 121.219 37.62 121.569 37.9098C121.923 38.1953 122.366 38.3381 122.898 38.3381ZM129.554 40V30.1818H133.677C134.84 30.1818 135.759 30.4141 136.432 30.8786C137.11 31.343 137.448 31.9908 137.448 32.8217C137.448 33.3714 137.257 33.821 136.873 34.1705C136.494 34.5156 135.976 34.7479 135.32 34.8672C135.835 34.9098 136.287 35.0398 136.675 35.2571C137.067 35.4744 137.374 35.7599 137.595 36.1136C137.817 36.4673 137.928 36.8743 137.928 37.3345C137.928 37.8757 137.785 38.3466 137.499 38.7472C137.218 39.1435 136.807 39.4524 136.266 39.674C135.729 39.8913 135.077 40 134.31 40H129.554ZM131.721 38.1783H134.31C134.736 38.1783 135.07 38.0781 135.313 37.8778C135.556 37.6733 135.678 37.3963 135.678 37.0469C135.678 36.642 135.556 36.3246 135.313 36.0945C135.07 35.8601 134.736 35.7429 134.31 35.7429H131.721V38.1783ZM131.721 34.2472H133.722C134.037 34.2472 134.308 34.2024 134.534 34.1129C134.759 34.0192 134.932 33.8892 135.051 33.723C135.171 33.5526 135.23 33.3501 135.23 33.1158C135.23 32.7791 135.092 32.5149 134.815 32.3232C134.542 32.1314 134.163 32.0355 133.677 32.0355H131.721V34.2472Z" fill="#ECECEC"/>
<rect x="2" y="5" width="36" height="36" rx="18" stroke="#FF9C07" stroke-width="4"/>
<rect x="18" y="21" width="4" height="4" rx="2" fill="#FF9C07"/>
<rect x="16" y="10" width="8" height="8" rx="4" fill="#FF9C07"/>
<rect x="16" y="28" width="8" height="8" rx="4" fill="#FF9C07"/>
<rect x="33" y="19" width="8" height="8" rx="4" transform="rotate(90 33 19)" fill="#FF9C07"/>
<rect x="15" y="19" width="8" height="8" rx="4" transform="rotate(90 15 19)" fill="#FF9C07"/>
</svg>
