<svg width="184" height="44" viewBox="0 0 184 44" fill="none" xmlns="http://www.w3.org/2000/svg">
<rect x="1" y="1" width="182" height="42" rx="9" stroke="#FF9C07" stroke-width="2"/>
<path d="M62.0208 16.8182V27H60.1912V18.3494H55.7367V27H53.9071V16.8182H62.0208ZM67.4783 27.1491C66.7326 27.1491 66.0863 26.9851 65.5394 26.657C64.9925 26.3288 64.5683 25.8698 64.2667 25.2798C63.9684 24.6899 63.8192 24.0005 63.8192 23.2116C63.8192 22.4228 63.9684 21.7318 64.2667 21.1385C64.5683 20.5452 64.9925 20.0845 65.5394 19.7564C66.0863 19.4283 66.7326 19.2642 67.4783 19.2642C68.2241 19.2642 68.8704 19.4283 69.4173 19.7564C69.9641 20.0845 70.3867 20.5452 70.685 21.1385C70.9866 21.7318 71.1374 22.4228 71.1374 23.2116C71.1374 24.0005 70.9866 24.6899 70.685 25.2798C70.3867 25.8698 69.9641 26.3288 69.4173 26.657C68.8704 26.9851 68.2241 27.1491 67.4783 27.1491ZM67.4883 25.7074C67.8926 25.7074 68.2307 25.5964 68.5025 25.3743C68.7743 25.1489 68.9764 24.8473 69.109 24.4695C69.2449 24.0916 69.3129 23.6707 69.3129 23.2067C69.3129 22.7393 69.2449 22.3168 69.109 21.9389C68.9764 21.5578 68.7743 21.2545 68.5025 21.0291C68.2307 20.8037 67.8926 20.6911 67.4883 20.6911C67.074 20.6911 66.7293 20.8037 66.4542 21.0291C66.1824 21.2545 65.9786 21.5578 65.8427 21.9389C65.7101 22.3168 65.6438 22.7393 65.6438 23.2067C65.6438 23.6707 65.7101 24.0916 65.8427 24.4695C65.9786 24.8473 66.1824 25.1489 66.4542 25.3743C66.7293 25.5964 67.074 25.7074 67.4883 25.7074ZM71.9888 29.2173V25.5185H72.5953C72.7578 25.3925 72.8936 25.2218 73.003 25.0064C73.1124 24.7876 73.2019 24.5308 73.2715 24.2358C73.3444 23.9375 73.4041 23.6044 73.4505 23.2365C73.4969 22.8653 73.5383 22.4659 73.5748 22.0384L73.7935 19.3636H79.312V25.5185H80.4952V29.2173H78.7551V27H73.7587V29.2173H71.9888ZM74.4448 25.5185H77.5918V20.8153H75.3546L75.2353 22.0384C75.169 22.8471 75.0811 23.5398 74.9718 24.1165C74.8624 24.6932 74.6867 25.1605 74.4448 25.5185ZM81.8388 29.8636V19.3636H83.6087V20.6264H83.7131C83.8059 20.4408 83.9368 20.2436 84.1058 20.0348C84.2749 19.8227 84.5036 19.642 84.7919 19.4929C85.0803 19.3404 85.4482 19.2642 85.8956 19.2642C86.4856 19.2642 87.0175 19.415 87.4915 19.7166C87.9688 20.0149 88.3466 20.4574 88.625 21.044C88.9067 21.6274 89.0476 22.3433 89.0476 23.1918C89.0476 24.0303 88.91 24.7429 88.6349 25.3295C88.3598 25.9162 87.9853 26.3636 87.5114 26.6719C87.0374 26.9801 86.5005 27.1342 85.9006 27.1342C85.4631 27.1342 85.1001 27.0613 84.8118 26.9155C84.5234 26.7696 84.2914 26.594 84.1158 26.3885C83.9434 26.1797 83.8092 25.9825 83.7131 25.7969H83.6385V29.8636H81.8388ZM83.6037 23.1818C83.6037 23.6757 83.6733 24.1082 83.8125 24.4794C83.955 24.8506 84.1589 25.1406 84.424 25.3494C84.6925 25.5549 85.0173 25.6577 85.3984 25.6577C85.7962 25.6577 86.1293 25.5516 86.3977 25.3395C86.6662 25.1241 86.8684 24.8307 87.0043 24.4595C87.1435 24.085 87.2131 23.6591 87.2131 23.1818C87.2131 22.7079 87.1451 22.2869 87.0092 21.919C86.8733 21.5511 86.6712 21.2628 86.4027 21.054C86.1342 20.8452 85.7995 20.7408 85.3984 20.7408C85.014 20.7408 84.6875 20.8419 84.419 21.044C84.1506 21.2462 83.9467 21.5296 83.8075 21.8942C83.6716 22.2588 83.6037 22.688 83.6037 23.1818ZM93.9197 27.1491C93.174 27.1491 92.5277 26.9851 91.9808 26.657C91.4339 26.3288 91.0097 25.8698 90.7081 25.2798C90.4098 24.6899 90.2607 24.0005 90.2607 23.2116C90.2607 22.4228 90.4098 21.7318 90.7081 21.1385C91.0097 20.5452 91.4339 20.0845 91.9808 19.7564C92.5277 19.4283 93.174 19.2642 93.9197 19.2642C94.6655 19.2642 95.3118 19.4283 95.8587 19.7564C96.4055 20.0845 96.8281 20.5452 97.1264 21.1385C97.428 21.7318 97.5788 22.4228 97.5788 23.2116C97.5788 24.0005 97.428 24.6899 97.1264 25.2798C96.8281 25.8698 96.4055 26.3288 95.8587 26.657C95.3118 26.9851 94.6655 27.1491 93.9197 27.1491ZM93.9297 25.7074C94.334 25.7074 94.6721 25.5964 94.9439 25.3743C95.2157 25.1489 95.4179 24.8473 95.5504 24.4695C95.6863 24.0916 95.7543 23.6707 95.7543 23.2067C95.7543 22.7393 95.6863 22.3168 95.5504 21.9389C95.4179 21.5578 95.2157 21.2545 94.9439 21.0291C94.6721 20.8037 94.334 20.6911 93.9297 20.6911C93.5154 20.6911 93.1707 20.8037 92.8956 21.0291C92.6238 21.2545 92.42 21.5578 92.2841 21.9389C92.1515 22.3168 92.0852 22.7393 92.0852 23.2067C92.0852 23.6707 92.1515 24.0916 92.2841 24.4695C92.42 24.8473 92.6238 25.1489 92.8956 25.3743C93.1707 25.5964 93.5154 25.7074 93.9297 25.7074ZM105.226 16.5398L105.853 17.7031C105.631 17.8954 105.382 18.0346 105.107 18.1207C104.832 18.2069 104.509 18.2633 104.138 18.2898C103.77 18.313 103.332 18.3295 102.825 18.3395C102.255 18.3527 101.789 18.4605 101.428 18.6626C101.067 18.8648 100.79 19.1714 100.598 19.5824C100.406 19.9901 100.28 20.5104 100.22 21.1435H100.305C100.543 20.6761 100.878 20.3198 101.309 20.0746C101.74 19.8293 102.245 19.7067 102.825 19.7067C103.458 19.7067 104.017 19.8492 104.501 20.1342C104.988 20.416 105.367 20.8253 105.639 21.3622C105.914 21.8991 106.052 22.5488 106.052 23.3111C106.052 24.0966 105.904 24.7777 105.609 25.3544C105.314 25.9278 104.895 26.3703 104.351 26.6818C103.811 26.9934 103.17 27.1491 102.427 27.1491C101.688 27.1491 101.045 26.9884 100.498 26.6669C99.9548 26.3421 99.5339 25.8632 99.2356 25.2301C98.9406 24.5937 98.7931 23.8099 98.7931 22.8786V22.1925C98.7931 20.3961 99.1279 19.0554 99.7974 18.1705C100.467 17.2855 101.46 16.8348 102.775 16.8182C103.166 16.8116 103.516 16.8099 103.824 16.8132C104.136 16.8165 104.408 16.8016 104.64 16.7685C104.872 16.7353 105.067 16.6591 105.226 16.5398ZM102.437 25.7074C102.805 25.7074 103.123 25.6129 103.392 25.424C103.66 25.2318 103.866 24.96 104.008 24.6087C104.154 24.2573 104.227 23.8414 104.227 23.3608C104.227 22.8868 104.154 22.4841 104.008 22.1527C103.863 21.8179 103.655 21.5627 103.387 21.3871C103.118 21.2114 102.799 21.1236 102.427 21.1236C102.149 21.1236 101.899 21.1733 101.677 21.2727C101.455 21.3722 101.266 21.518 101.11 21.7102C100.954 21.9025 100.835 22.1361 100.752 22.4112C100.669 22.6863 100.624 23.0028 100.618 23.3608C100.618 24.08 100.78 24.6518 101.105 25.076C101.43 25.4969 101.874 25.7074 102.437 25.7074ZM112.828 22.4361V23.9126H108.761V22.4361H112.828ZM109.318 19.3636V27H107.583V19.3636H109.318ZM114.006 19.3636V27H112.276V19.3636H114.006ZM119.208 27.1491C118.442 27.1491 117.781 26.9901 117.224 26.6719C116.671 26.3504 116.245 25.8963 115.946 25.3097C115.648 24.7197 115.499 24.0253 115.499 23.2266C115.499 22.4411 115.648 21.7517 115.946 21.1584C116.248 20.5618 116.669 20.0978 117.209 19.7663C117.749 19.4316 118.384 19.2642 119.113 19.2642C119.584 19.2642 120.028 19.3404 120.446 19.4929C120.867 19.642 121.238 19.8741 121.559 20.1889C121.884 20.5038 122.139 20.9048 122.325 21.392C122.511 21.8759 122.603 22.4527 122.603 23.1222V23.674H116.344V22.4609H120.878C120.875 22.1162 120.8 21.8097 120.654 21.5412C120.509 21.2694 120.305 21.0556 120.043 20.8999C119.784 20.7441 119.483 20.6662 119.138 20.6662C118.77 20.6662 118.447 20.7557 118.169 20.9347C117.89 21.1103 117.673 21.3423 117.517 21.6307C117.365 21.9157 117.287 22.2289 117.284 22.5703V23.6293C117.284 24.0734 117.365 24.4545 117.527 24.7727C117.69 25.0876 117.917 25.3295 118.208 25.4986C118.5 25.6643 118.842 25.7472 119.233 25.7472C119.494 25.7472 119.731 25.7107 119.944 25.6378C120.156 25.5616 120.34 25.4505 120.495 25.3047C120.651 25.1589 120.769 24.9782 120.848 24.7628L122.529 24.9517C122.423 25.3958 122.221 25.7836 121.922 26.1151C121.627 26.4432 121.249 26.6984 120.789 26.8807C120.328 27.0597 119.801 27.1491 119.208 27.1491ZM127.507 27.1491C126.741 27.1491 126.08 26.9901 125.523 26.6719C124.969 26.3504 124.544 25.8963 124.245 25.3097C123.947 24.7197 123.798 24.0253 123.798 23.2266C123.798 22.4411 123.947 21.7517 124.245 21.1584C124.547 20.5618 124.968 20.0978 125.508 19.7663C126.048 19.4316 126.683 19.2642 127.412 19.2642C127.883 19.2642 128.327 19.3404 128.744 19.4929C129.165 19.642 129.537 19.8741 129.858 20.1889C130.183 20.5038 130.438 20.9048 130.624 21.392C130.809 21.8759 130.902 22.4527 130.902 23.1222V23.674H124.643V22.4609H129.177C129.174 22.1162 129.099 21.8097 128.953 21.5412C128.807 21.2694 128.604 21.0556 128.342 20.8999C128.083 20.7441 127.782 20.6662 127.437 20.6662C127.069 20.6662 126.746 20.7557 126.468 20.9347C126.189 21.1103 125.972 21.3423 125.816 21.6307C125.664 21.9157 125.586 22.2289 125.583 22.5703V23.6293C125.583 24.0734 125.664 24.4545 125.826 24.7727C125.989 25.0876 126.216 25.3295 126.507 25.4986C126.799 25.6643 127.14 25.7472 127.531 25.7472C127.793 25.7472 128.03 25.7107 128.242 25.6378C128.454 25.5616 128.638 25.4505 128.794 25.3047C128.95 25.1589 129.068 24.9782 129.147 24.7628L130.828 24.9517C130.722 25.3958 130.519 25.7836 130.221 26.1151C129.926 26.4432 129.548 26.6984 129.088 26.8807C128.627 27.0597 128.1 27.1491 127.507 27.1491Z" fill="#FF9C07"/>
</svg>
