<svg width="1200" height="60" viewBox="0 0 1200 60" fill="none" xmlns="http://www.w3.org/2000/svg">
<rect x="1" y="1" width="1198" height="58" rx="9" stroke="#FF9C07" stroke-width="2"/>
<path d="M532.5 27L538.5 33L544.5 27" stroke="#FF9C07" stroke-width="2" stroke-linecap="round"/>
<path d="M569.548 24.3636V36H567.457V26.1136H562.366V36H560.276V24.3636H569.548ZM575.786 36.1705C574.933 36.1705 574.195 35.983 573.57 35.608C572.945 35.233 572.46 34.7083 572.115 34.0341C571.774 33.3598 571.604 32.572 571.604 31.6705C571.604 30.7689 571.774 29.9792 572.115 29.3011C572.46 28.6231 572.945 28.0966 573.57 27.7216C574.195 27.3466 574.933 27.1591 575.786 27.1591C576.638 27.1591 577.376 27.3466 578.001 27.7216C578.626 28.0966 579.109 28.6231 579.45 29.3011C579.795 29.9792 579.967 30.7689 579.967 31.6705C579.967 32.572 579.795 33.3598 579.45 34.0341C579.109 34.7083 578.626 35.233 578.001 35.608C577.376 35.983 576.638 36.1705 575.786 36.1705ZM575.797 34.5227C576.259 34.5227 576.645 34.3958 576.956 34.142C577.267 33.8845 577.498 33.5398 577.649 33.108C577.804 32.6761 577.882 32.1951 577.882 31.6648C577.882 31.1307 577.804 30.6477 577.649 30.2159C577.498 29.7803 577.267 29.4337 576.956 29.1761C576.645 28.9186 576.259 28.7898 575.797 28.7898C575.323 28.7898 574.929 28.9186 574.615 29.1761C574.304 29.4337 574.071 29.7803 573.916 30.2159C573.765 30.6477 573.689 31.1307 573.689 31.6648C573.689 32.1951 573.765 32.6761 573.916 33.108C574.071 33.5398 574.304 33.8845 574.615 34.142C574.929 34.3958 575.323 34.5227 575.797 34.5227ZM581.713 36V27.2727H583.77V30.7955H584.52L587.145 27.2727H589.622L586.389 31.5568L589.656 36H587.168L584.776 32.7102H583.77V36H581.713ZM593.334 36.1761C592.781 36.1761 592.283 36.0777 591.839 35.8807C591.4 35.6799 591.052 35.3845 590.794 34.9943C590.54 34.6042 590.413 34.1231 590.413 33.5511C590.413 33.0587 590.504 32.6515 590.686 32.3295C590.868 32.0076 591.116 31.75 591.43 31.5568C591.745 31.3636 592.099 31.2178 592.493 31.1193C592.891 31.017 593.302 30.9432 593.726 30.8977C594.237 30.8447 594.652 30.7973 594.97 30.7557C595.288 30.7102 595.519 30.642 595.663 30.5511C595.811 30.4564 595.885 30.3106 595.885 30.1136V30.0795C595.885 29.6515 595.758 29.3201 595.504 29.0852C595.25 28.8504 594.885 28.733 594.408 28.733C593.904 28.733 593.504 28.8428 593.209 29.0625C592.917 29.2822 592.72 29.5417 592.618 29.8409L590.697 29.5682C590.849 29.0379 591.099 28.5947 591.447 28.2386C591.796 27.8788 592.222 27.6098 592.726 27.4318C593.23 27.25 593.786 27.1591 594.396 27.1591C594.817 27.1591 595.235 27.2083 595.652 27.3068C596.069 27.4053 596.449 27.5682 596.794 27.7955C597.139 28.0189 597.415 28.3239 597.624 28.7102C597.836 29.0966 597.942 29.5795 597.942 30.1591V36H595.964V34.8011H595.896C595.771 35.0436 595.595 35.2708 595.368 35.483C595.144 35.6913 594.862 35.8598 594.521 35.9886C594.184 36.1136 593.788 36.1761 593.334 36.1761ZM593.868 34.6648C594.281 34.6648 594.639 34.5833 594.942 34.4205C595.245 34.2538 595.478 34.0341 595.641 33.7614C595.807 33.4886 595.891 33.1913 595.891 32.8693V31.8409C595.826 31.8939 595.716 31.9432 595.561 31.9886C595.41 32.0341 595.239 32.0739 595.05 32.108C594.86 32.142 594.673 32.1723 594.487 32.1989C594.302 32.2254 594.141 32.2481 594.004 32.267C593.697 32.3087 593.423 32.3769 593.18 32.4716C592.938 32.5663 592.747 32.6989 592.607 32.8693C592.466 33.036 592.396 33.2519 592.396 33.517C592.396 33.8958 592.535 34.1818 592.811 34.375C593.088 34.5682 593.44 34.6648 593.868 34.6648ZM599.527 33.608H601.567C601.586 33.9337 601.732 34.1856 602.004 34.3636C602.277 34.5417 602.631 34.6307 603.067 34.6307C603.51 34.6307 603.883 34.5341 604.186 34.3409C604.493 34.1439 604.646 33.8466 604.646 33.4489C604.646 33.214 604.588 33.0076 604.47 32.8295C604.353 32.6477 604.188 32.5076 603.976 32.4091C603.764 32.3106 603.514 32.2614 603.226 32.2614H601.891V30.8011H603.226C603.654 30.8011 603.978 30.7027 604.197 30.5057C604.421 30.3087 604.533 30.0606 604.533 29.7614C604.533 29.4394 604.415 29.178 604.18 28.9773C603.949 28.7765 603.629 28.6761 603.22 28.6761C602.811 28.6761 602.47 28.7689 602.197 28.9545C601.929 29.1402 601.788 29.3788 601.777 29.6705H599.749C599.756 29.1629 599.908 28.7216 600.203 28.3466C600.502 27.9716 600.904 27.6799 601.408 27.4716C601.915 27.2633 602.487 27.1591 603.124 27.1591C603.805 27.1591 604.394 27.2614 604.891 27.4659C605.387 27.6705 605.769 27.9564 606.038 28.3239C606.307 28.6875 606.442 29.1155 606.442 29.608C606.442 30.0814 606.294 30.4735 605.999 30.7841C605.703 31.0909 605.305 31.3106 604.805 31.4432V31.5341C605.15 31.553 605.461 31.6515 605.737 31.8295C606.014 32.0038 606.233 32.2405 606.396 32.5398C606.559 32.839 606.641 33.1856 606.641 33.5795C606.641 34.1136 606.487 34.5758 606.18 34.9659C605.874 35.3523 605.451 35.6496 604.913 35.858C604.379 36.0663 603.768 36.1705 603.078 36.1705C602.408 36.1705 601.807 36.0701 601.277 35.8693C600.75 35.6648 600.332 35.3712 600.021 34.9886C599.711 34.6061 599.546 34.1458 599.527 33.608ZM610.771 36.1761C610.218 36.1761 609.72 36.0777 609.277 35.8807C608.838 35.6799 608.489 35.3845 608.232 34.9943C607.978 34.6042 607.851 34.1231 607.851 33.5511C607.851 33.0587 607.942 32.6515 608.124 32.3295C608.305 32.0076 608.554 31.75 608.868 31.5568C609.182 31.3636 609.536 31.2178 609.93 31.1193C610.328 31.017 610.739 30.9432 611.163 30.8977C611.675 30.8447 612.089 30.7973 612.408 30.7557C612.726 30.7102 612.957 30.642 613.101 30.5511C613.249 30.4564 613.322 30.3106 613.322 30.1136V30.0795C613.322 29.6515 613.196 29.3201 612.942 29.0852C612.688 28.8504 612.322 28.733 611.845 28.733C611.341 28.733 610.942 28.8428 610.646 29.0625C610.355 29.2822 610.158 29.5417 610.055 29.8409L608.135 29.5682C608.286 29.0379 608.536 28.5947 608.885 28.2386C609.233 27.8788 609.66 27.6098 610.163 27.4318C610.667 27.25 611.224 27.1591 611.834 27.1591C612.254 27.1591 612.673 27.2083 613.089 27.3068C613.506 27.4053 613.887 27.5682 614.232 27.7955C614.576 28.0189 614.853 28.3239 615.061 28.7102C615.273 29.0966 615.379 29.5795 615.379 30.1591V36H613.402V34.8011H613.334C613.209 35.0436 613.033 35.2708 612.805 35.483C612.582 35.6913 612.3 35.8598 611.959 35.9886C611.622 36.1136 611.226 36.1761 610.771 36.1761ZM611.305 34.6648C611.718 34.6648 612.076 34.5833 612.379 34.4205C612.682 34.2538 612.915 34.0341 613.078 33.7614C613.245 33.4886 613.328 33.1913 613.328 32.8693V31.8409C613.264 31.8939 613.154 31.9432 612.999 31.9886C612.847 32.0341 612.677 32.0739 612.487 32.108C612.298 32.142 612.11 32.1723 611.925 32.1989C611.739 32.2254 611.578 32.2481 611.442 32.267C611.135 32.3087 610.86 32.3769 610.618 32.4716C610.375 32.5663 610.184 32.6989 610.044 32.8693C609.904 33.036 609.834 33.2519 609.834 33.517C609.834 33.8958 609.972 34.1818 610.249 34.375C610.525 34.5682 610.877 34.6648 611.305 34.6648ZM616.47 28.9602V27.2727H624.107V28.9602H621.283V36H619.294V28.9602H616.47ZM627.136 30.1136H629.71C630.824 30.1136 631.686 30.3845 632.295 30.9261C632.905 31.4678 633.212 32.178 633.216 33.0568C633.212 33.6288 633.072 34.1364 632.795 34.5795C632.523 35.0227 632.125 35.3712 631.602 35.625C631.083 35.875 630.453 36 629.71 36H625.744V27.2727H627.727V34.3125H629.71C630.157 34.3125 630.525 34.1989 630.812 33.9716C631.1 33.7405 631.244 33.4451 631.244 33.0852C631.244 32.7064 631.1 32.3977 630.812 32.1591C630.525 31.9205 630.157 31.8011 629.71 31.8011H627.136V30.1136ZM642.811 36.1705C641.936 36.1705 641.18 35.9886 640.544 35.625C639.911 35.2576 639.425 34.7386 639.084 34.0682C638.743 33.3939 638.572 32.6004 638.572 31.6875C638.572 30.7898 638.743 30.0019 639.084 29.3239C639.429 28.642 639.91 28.1117 640.527 27.733C641.144 27.3504 641.87 27.1591 642.703 27.1591C643.241 27.1591 643.749 27.2462 644.226 27.4205C644.707 27.5909 645.131 27.8561 645.499 28.2159C645.87 28.5758 646.161 29.0341 646.374 29.5909C646.586 30.1439 646.692 30.803 646.692 31.5682V32.1989H639.538V30.8125H644.72C644.716 30.4186 644.631 30.0682 644.464 29.7614C644.298 29.4508 644.065 29.2064 643.766 29.0284C643.47 28.8504 643.125 28.7614 642.732 28.7614C642.311 28.7614 641.942 28.8636 641.624 29.0682C641.305 29.2689 641.057 29.5341 640.879 29.8636C640.705 30.1894 640.616 30.5473 640.612 30.9375V32.1477C640.612 32.6553 640.705 33.0909 640.891 33.4545C641.076 33.8144 641.336 34.0909 641.669 34.2841C642.002 34.4735 642.393 34.5682 642.839 34.5682C643.139 34.5682 643.41 34.5265 643.652 34.4432C643.894 34.3561 644.105 34.2292 644.283 34.0625C644.461 33.8958 644.595 33.6894 644.686 33.4432L646.607 33.6591C646.485 34.1667 646.254 34.6098 645.913 34.9886C645.576 35.3636 645.144 35.6553 644.618 35.8636C644.091 36.0682 643.489 36.1705 642.811 36.1705ZM661.54 34.3125L661.369 38.5H659.432V36H658.403V34.3125H661.54ZM648.432 27.2727H650.415V34.3068H653.159V27.2727H655.142V34.3068H657.886V27.2727H659.869V36H648.432V27.2727ZM666.936 36.1705C666.061 36.1705 665.305 35.9886 664.669 35.625C664.036 35.2576 663.55 34.7386 663.209 34.0682C662.868 33.3939 662.697 32.6004 662.697 31.6875C662.697 30.7898 662.868 30.0019 663.209 29.3239C663.554 28.642 664.035 28.1117 664.652 27.733C665.269 27.3504 665.995 27.1591 666.828 27.1591C667.366 27.1591 667.874 27.2462 668.351 27.4205C668.832 27.5909 669.256 27.8561 669.624 28.2159C669.995 28.5758 670.286 29.0341 670.499 29.5909C670.711 30.1439 670.817 30.803 670.817 31.5682V32.1989H663.663V30.8125H668.845C668.841 30.4186 668.756 30.0682 668.589 29.7614C668.423 29.4508 668.19 29.2064 667.891 29.0284C667.595 28.8504 667.25 28.7614 666.857 28.7614C666.436 28.7614 666.067 28.8636 665.749 29.0682C665.43 29.2689 665.182 29.5341 665.004 29.8636C664.83 30.1894 664.741 30.5473 664.737 30.9375V32.1477C664.737 32.6553 664.83 33.0909 665.016 33.4545C665.201 33.8144 665.461 34.0909 665.794 34.2841C666.127 34.4735 666.518 34.5682 666.964 34.5682C667.264 34.5682 667.535 34.5265 667.777 34.4432C668.019 34.3561 668.23 34.2292 668.408 34.0625C668.586 33.8958 668.72 33.6894 668.811 33.4432L670.732 33.6591C670.61 34.1667 670.379 34.6098 670.038 34.9886C669.701 35.3636 669.269 35.6553 668.743 35.8636C668.216 36.0682 667.614 36.1705 666.936 36.1705Z" fill="#FF9C07"/>
</svg>
