<svg width="280" height="44" viewBox="0 0 280 44" fill="none" xmlns="http://www.w3.org/2000/svg">
<rect x="1" y="1" width="278" height="42" rx="9" stroke="#FF9C07" stroke-width="2"/>
<path d="M79.5 19L85.5 25L91.5 19" stroke="#FF9C07" stroke-width="2" stroke-linecap="round"/>
<path d="M115.292 16.8182V27H113.463V18.3494H109.008V27H107.179V16.8182H115.292ZM120.75 27.1491C120.004 27.1491 119.358 26.9851 118.811 26.657C118.264 26.3288 117.84 25.8698 117.538 25.2798C117.24 24.6899 117.091 24.0005 117.091 23.2116C117.091 22.4228 117.24 21.7318 117.538 21.1385C117.84 20.5452 118.264 20.0845 118.811 19.7564C119.358 19.4283 120.004 19.2642 120.75 19.2642C121.496 19.2642 122.142 19.4283 122.689 19.7564C123.236 20.0845 123.658 20.5452 123.956 21.1385C124.258 21.7318 124.409 22.4228 124.409 23.2116C124.409 24.0005 124.258 24.6899 123.956 25.2798C123.658 25.8698 123.236 26.3288 122.689 26.657C122.142 26.9851 121.496 27.1491 120.75 27.1491ZM120.76 25.7074C121.164 25.7074 121.502 25.5964 121.774 25.3743C122.046 25.1489 122.248 24.8473 122.381 24.4695C122.516 24.0916 122.584 23.6707 122.584 23.2067C122.584 22.7393 122.516 22.3168 122.381 21.9389C122.248 21.5578 122.046 21.2545 121.774 21.0291C121.502 20.8037 121.164 20.6911 120.76 20.6911C120.345 20.6911 120.001 20.8037 119.726 21.0291C119.454 21.2545 119.25 21.5578 119.114 21.9389C118.982 22.3168 118.915 22.7393 118.915 23.2067C118.915 23.6707 118.982 24.0916 119.114 24.4695C119.25 24.8473 119.454 25.1489 119.726 25.3743C120.001 25.5964 120.345 25.7074 120.76 25.7074ZM125.936 27V19.3636H127.736V22.446H128.392L130.689 19.3636H132.857L130.028 23.1122L132.887 27H130.709L128.616 24.1214H127.736V27H125.936ZM136.105 27.1541C135.621 27.1541 135.185 27.0679 134.797 26.8956C134.413 26.7199 134.108 26.4614 133.882 26.12C133.66 25.7786 133.549 25.3577 133.549 24.8572C133.549 24.4264 133.629 24.0701 133.788 23.7884C133.947 23.5066 134.164 23.2812 134.439 23.1122C134.714 22.9432 135.024 22.8156 135.369 22.7294C135.717 22.6399 136.076 22.5753 136.448 22.5355C136.895 22.4891 137.258 22.4477 137.536 22.4112C137.815 22.3714 138.017 22.3118 138.143 22.2322C138.272 22.1494 138.337 22.0218 138.337 21.8494V21.8196C138.337 21.4451 138.226 21.1551 138.004 20.9496C137.782 20.7441 137.462 20.6413 137.044 20.6413C136.603 20.6413 136.254 20.7375 135.995 20.9297C135.74 21.1219 135.568 21.349 135.478 21.6108L133.798 21.3722C133.93 20.9081 134.149 20.5204 134.454 20.2088C134.759 19.8939 135.132 19.6586 135.573 19.5028C136.013 19.3438 136.501 19.2642 137.034 19.2642C137.402 19.2642 137.768 19.3073 138.133 19.3935C138.498 19.4796 138.831 19.6222 139.132 19.821C139.434 20.0166 139.676 20.2834 139.858 20.6214C140.044 20.9595 140.137 21.3821 140.137 21.8892V27H138.406V25.951H138.347C138.237 26.1631 138.083 26.362 137.884 26.5476C137.689 26.7299 137.442 26.8774 137.144 26.9901C136.849 27.0994 136.502 27.1541 136.105 27.1541ZM136.572 25.8317C136.933 25.8317 137.246 25.7604 137.512 25.6179C137.777 25.4721 137.981 25.2798 138.123 25.0412C138.269 24.8026 138.342 24.5424 138.342 24.2607V23.3608C138.285 23.4072 138.189 23.4503 138.053 23.4901C137.921 23.5298 137.772 23.5646 137.606 23.5945C137.44 23.6243 137.276 23.6508 137.114 23.674C136.951 23.6972 136.811 23.7171 136.691 23.7337C136.423 23.7701 136.182 23.8298 135.97 23.9126C135.758 23.9955 135.591 24.1115 135.468 24.2607C135.346 24.4065 135.284 24.5954 135.284 24.8274C135.284 25.1589 135.405 25.4091 135.647 25.5781C135.889 25.7472 136.197 25.8317 136.572 25.8317ZM141.524 24.907H143.308C143.325 25.192 143.453 25.4124 143.691 25.5682C143.93 25.724 144.24 25.8018 144.621 25.8018C145.009 25.8018 145.335 25.7173 145.6 25.5483C145.869 25.3759 146.003 25.1158 146.003 24.7678C146.003 24.5623 145.952 24.3816 145.849 24.2259C145.746 24.0668 145.602 23.9441 145.416 23.858C145.231 23.7718 145.012 23.7287 144.76 23.7287H143.592V22.451H144.76C145.135 22.451 145.418 22.3648 145.61 22.1925C145.806 22.0201 145.904 21.803 145.904 21.5412C145.904 21.2595 145.801 21.0308 145.595 20.8551C145.393 20.6795 145.113 20.5916 144.755 20.5916C144.397 20.5916 144.099 20.6728 143.86 20.8352C143.625 20.9976 143.502 21.2064 143.492 21.4616H141.718C141.724 21.0175 141.857 20.6314 142.115 20.3033C142.377 19.9751 142.728 19.7199 143.169 19.5376C143.613 19.3554 144.114 19.2642 144.671 19.2642C145.267 19.2642 145.783 19.3537 146.217 19.5327C146.651 19.7116 146.986 19.9619 147.221 20.2834C147.456 20.6016 147.574 20.9761 147.574 21.407C147.574 21.8213 147.445 22.1643 147.186 22.4361C146.928 22.7045 146.58 22.8968 146.142 23.0128V23.0923C146.444 23.1089 146.716 23.1951 146.958 23.3509C147.2 23.5033 147.392 23.7105 147.534 23.9723C147.677 24.2341 147.748 24.5374 147.748 24.8821C147.748 25.3494 147.614 25.7538 147.345 26.0952C147.077 26.4332 146.707 26.6934 146.237 26.8757C145.769 27.058 145.234 27.1491 144.631 27.1491C144.044 27.1491 143.519 27.0613 143.055 26.8857C142.594 26.7067 142.228 26.4498 141.956 26.1151C141.684 25.7803 141.54 25.3776 141.524 24.907ZM151.362 27.1541C150.878 27.1541 150.443 27.0679 150.055 26.8956C149.67 26.7199 149.365 26.4614 149.14 26.12C148.918 25.7786 148.807 25.3577 148.807 24.8572C148.807 24.4264 148.887 24.0701 149.046 23.7884C149.205 23.5066 149.422 23.2812 149.697 23.1122C149.972 22.9432 150.282 22.8156 150.627 22.7294C150.975 22.6399 151.334 22.5753 151.705 22.5355C152.153 22.4891 152.516 22.4477 152.794 22.4112C153.073 22.3714 153.275 22.3118 153.401 22.2322C153.53 22.1494 153.595 22.0218 153.595 21.8494V21.8196C153.595 21.4451 153.484 21.1551 153.262 20.9496C153.039 20.7441 152.72 20.6413 152.302 20.6413C151.861 20.6413 151.512 20.7375 151.253 20.9297C150.998 21.1219 150.825 21.349 150.736 21.6108L149.056 21.3722C149.188 20.9081 149.407 20.5204 149.712 20.2088C150.017 19.8939 150.39 19.6586 150.83 19.5028C151.271 19.3438 151.758 19.2642 152.292 19.2642C152.66 19.2642 153.026 19.3073 153.391 19.3935C153.755 19.4796 154.088 19.6222 154.39 19.821C154.692 20.0166 154.934 20.2834 155.116 20.6214C155.302 20.9595 155.394 21.3821 155.394 21.8892V27H153.664V25.951H153.605C153.495 26.1631 153.341 26.362 153.142 26.5476C152.947 26.7299 152.7 26.8774 152.401 26.9901C152.106 27.0994 151.76 27.1541 151.362 27.1541ZM151.83 25.8317C152.191 25.8317 152.504 25.7604 152.769 25.6179C153.035 25.4721 153.238 25.2798 153.381 25.0412C153.527 24.8026 153.6 24.5424 153.6 24.2607V23.3608C153.543 23.4072 153.447 23.4503 153.311 23.4901C153.179 23.5298 153.03 23.5646 152.864 23.5945C152.698 23.6243 152.534 23.6508 152.372 23.674C152.209 23.6972 152.068 23.7171 151.949 23.7337C151.681 23.7701 151.44 23.8298 151.228 23.9126C151.016 23.9955 150.849 24.1115 150.726 24.2607C150.603 24.4065 150.542 24.5954 150.542 24.8274C150.542 25.1589 150.663 25.4091 150.905 25.5781C151.147 25.7472 151.455 25.8317 151.83 25.8317ZM156.349 20.8402V19.3636H163.031V20.8402H160.56V27H158.82V20.8402H156.349ZM165.682 21.8494H167.934C168.908 21.8494 169.662 22.0864 170.196 22.5604C170.73 23.0343 170.998 23.6558 171.001 24.4247C170.998 24.9252 170.875 25.3693 170.634 25.7571C170.395 26.1449 170.047 26.4498 169.589 26.6719C169.135 26.8906 168.584 27 167.934 27H164.464V19.3636H166.199V25.5234H167.934C168.325 25.5234 168.647 25.424 168.898 25.2251C169.15 25.023 169.276 24.7644 169.276 24.4496C169.276 24.1181 169.15 23.848 168.898 23.6392C168.647 23.4304 168.325 23.326 167.934 23.326H165.682V21.8494ZM179.397 27.1491C178.632 27.1491 177.97 26.9901 177.414 26.6719C176.86 26.3504 176.434 25.8963 176.136 25.3097C175.838 24.7197 175.688 24.0253 175.688 23.2266C175.688 22.4411 175.838 21.7517 176.136 21.1584C176.437 20.5618 176.858 20.0978 177.399 19.7663C177.939 19.4316 178.574 19.2642 179.303 19.2642C179.773 19.2642 180.218 19.3404 180.635 19.4929C181.056 19.642 181.427 19.8741 181.749 20.1889C182.074 20.5038 182.329 20.9048 182.514 21.392C182.7 21.8759 182.793 22.4527 182.793 23.1222V23.674H176.534V22.4609H181.068C181.064 22.1162 180.99 21.8097 180.844 21.5412C180.698 21.2694 180.494 21.0556 180.232 20.8999C179.974 20.7441 179.672 20.6662 179.328 20.6662C178.96 20.6662 178.637 20.7557 178.358 20.9347C178.08 21.1103 177.863 21.3423 177.707 21.6307C177.554 21.9157 177.477 22.2289 177.473 22.5703V23.6293C177.473 24.0734 177.554 24.4545 177.717 24.7727C177.879 25.0876 178.106 25.3295 178.398 25.4986C178.69 25.6643 179.031 25.7472 179.422 25.7472C179.684 25.7472 179.921 25.7107 180.133 25.6378C180.345 25.5616 180.529 25.4505 180.685 25.3047C180.841 25.1589 180.958 24.9782 181.038 24.7628L182.718 24.9517C182.612 25.3958 182.41 25.7836 182.112 26.1151C181.817 26.4432 181.439 26.6984 180.978 26.8807C180.517 27.0597 179.99 27.1491 179.397 27.1491ZM195.785 25.5234L195.636 29.1875H193.94V27H193.04V25.5234H195.785ZM184.315 19.3636H186.05V25.5185H188.452V19.3636H190.187V25.5185H192.588V19.3636H194.323V27H184.315V19.3636ZM200.507 27.1491C199.741 27.1491 199.08 26.9901 198.523 26.6719C197.969 26.3504 197.544 25.8963 197.245 25.3097C196.947 24.7197 196.798 24.0253 196.798 23.2266C196.798 22.4411 196.947 21.7517 197.245 21.1584C197.547 20.5618 197.968 20.0978 198.508 19.7663C199.048 19.4316 199.683 19.2642 200.412 19.2642C200.883 19.2642 201.327 19.3404 201.744 19.4929C202.165 19.642 202.537 19.8741 202.858 20.1889C203.183 20.5038 203.438 20.9048 203.624 21.392C203.809 21.8759 203.902 22.4527 203.902 23.1222V23.674H197.643V22.4609H202.177C202.174 22.1162 202.099 21.8097 201.953 21.5412C201.807 21.2694 201.604 21.0556 201.342 20.8999C201.083 20.7441 200.782 20.6662 200.437 20.6662C200.069 20.6662 199.746 20.7557 199.468 20.9347C199.189 21.1103 198.972 21.3423 198.816 21.6307C198.664 21.9157 198.586 22.2289 198.583 22.5703V23.6293C198.583 24.0734 198.664 24.4545 198.826 24.7727C198.989 25.0876 199.216 25.3295 199.507 25.4986C199.799 25.6643 200.14 25.7472 200.531 25.7472C200.793 25.7472 201.03 25.7107 201.242 25.6378C201.454 25.5616 201.638 25.4505 201.794 25.3047C201.95 25.1589 202.068 24.9782 202.147 24.7628L203.828 24.9517C203.722 25.3958 203.519 25.7836 203.221 26.1151C202.926 26.4432 202.548 26.6984 202.088 26.8807C201.627 27.0597 201.1 27.1491 200.507 27.1491Z" fill="#FF9C07"/>
</svg>
