<svg width="688" height="60" viewBox="0 0 688 60" fill="none" xmlns="http://www.w3.org/2000/svg">
<rect x="1" y="1" width="686" height="58" rx="9" stroke="#FF9C07" stroke-width="2"/>
<path d="M276.5 27L282.5 33L288.5 27" stroke="#FF9C07" stroke-width="2" stroke-linecap="round"/>
<path d="M313.548 24.3636V36H311.457V26.1136H306.366V36H304.276V24.3636H313.548ZM319.786 36.1705C318.933 36.1705 318.195 35.983 317.57 35.608C316.945 35.233 316.46 34.7083 316.115 34.0341C315.774 33.3598 315.604 32.572 315.604 31.6705C315.604 30.7689 315.774 29.9792 316.115 29.3011C316.46 28.6231 316.945 28.0966 317.57 27.7216C318.195 27.3466 318.933 27.1591 319.786 27.1591C320.638 27.1591 321.376 27.3466 322.001 27.7216C322.626 28.0966 323.109 28.6231 323.45 29.3011C323.795 29.9792 323.967 30.7689 323.967 31.6705C323.967 32.572 323.795 33.3598 323.45 34.0341C323.109 34.7083 322.626 35.233 322.001 35.608C321.376 35.983 320.638 36.1705 319.786 36.1705ZM319.797 34.5227C320.259 34.5227 320.645 34.3958 320.956 34.142C321.267 33.8845 321.498 33.5398 321.649 33.108C321.804 32.6761 321.882 32.1951 321.882 31.6648C321.882 31.1307 321.804 30.6477 321.649 30.2159C321.498 29.7803 321.267 29.4337 320.956 29.1761C320.645 28.9186 320.259 28.7898 319.797 28.7898C319.323 28.7898 318.929 28.9186 318.615 29.1761C318.304 29.4337 318.071 29.7803 317.916 30.2159C317.765 30.6477 317.689 31.1307 317.689 31.6648C317.689 32.1951 317.765 32.6761 317.916 33.108C318.071 33.5398 318.304 33.8845 318.615 34.142C318.929 34.3958 319.323 34.5227 319.797 34.5227ZM325.713 36V27.2727H327.77V30.7955H328.52L331.145 27.2727H333.622L330.389 31.5568L333.656 36H331.168L328.776 32.7102H327.77V36H325.713ZM337.334 36.1761C336.781 36.1761 336.283 36.0777 335.839 35.8807C335.4 35.6799 335.052 35.3845 334.794 34.9943C334.54 34.6042 334.413 34.1231 334.413 33.5511C334.413 33.0587 334.504 32.6515 334.686 32.3295C334.868 32.0076 335.116 31.75 335.43 31.5568C335.745 31.3636 336.099 31.2178 336.493 31.1193C336.891 31.017 337.302 30.9432 337.726 30.8977C338.237 30.8447 338.652 30.7973 338.97 30.7557C339.288 30.7102 339.519 30.642 339.663 30.5511C339.811 30.4564 339.885 30.3106 339.885 30.1136V30.0795C339.885 29.6515 339.758 29.3201 339.504 29.0852C339.25 28.8504 338.885 28.733 338.408 28.733C337.904 28.733 337.504 28.8428 337.209 29.0625C336.917 29.2822 336.72 29.5417 336.618 29.8409L334.697 29.5682C334.849 29.0379 335.099 28.5947 335.447 28.2386C335.796 27.8788 336.222 27.6098 336.726 27.4318C337.23 27.25 337.786 27.1591 338.396 27.1591C338.817 27.1591 339.235 27.2083 339.652 27.3068C340.069 27.4053 340.449 27.5682 340.794 27.7955C341.139 28.0189 341.415 28.3239 341.624 28.7102C341.836 29.0966 341.942 29.5795 341.942 30.1591V36H339.964V34.8011H339.896C339.771 35.0436 339.595 35.2708 339.368 35.483C339.144 35.6913 338.862 35.8598 338.521 35.9886C338.184 36.1136 337.788 36.1761 337.334 36.1761ZM337.868 34.6648C338.281 34.6648 338.639 34.5833 338.942 34.4205C339.245 34.2538 339.478 34.0341 339.641 33.7614C339.807 33.4886 339.891 33.1913 339.891 32.8693V31.8409C339.826 31.8939 339.716 31.9432 339.561 31.9886C339.41 32.0341 339.239 32.0739 339.05 32.108C338.86 32.142 338.673 32.1723 338.487 32.1989C338.302 32.2254 338.141 32.2481 338.004 32.267C337.697 32.3087 337.423 32.3769 337.18 32.4716C336.938 32.5663 336.747 32.6989 336.607 32.8693C336.466 33.036 336.396 33.2519 336.396 33.517C336.396 33.8958 336.535 34.1818 336.811 34.375C337.088 34.5682 337.44 34.6648 337.868 34.6648ZM343.527 33.608H345.567C345.586 33.9337 345.732 34.1856 346.004 34.3636C346.277 34.5417 346.631 34.6307 347.067 34.6307C347.51 34.6307 347.883 34.5341 348.186 34.3409C348.493 34.1439 348.646 33.8466 348.646 33.4489C348.646 33.214 348.588 33.0076 348.47 32.8295C348.353 32.6477 348.188 32.5076 347.976 32.4091C347.764 32.3106 347.514 32.2614 347.226 32.2614H345.891V30.8011H347.226C347.654 30.8011 347.978 30.7027 348.197 30.5057C348.421 30.3087 348.533 30.0606 348.533 29.7614C348.533 29.4394 348.415 29.178 348.18 28.9773C347.949 28.7765 347.629 28.6761 347.22 28.6761C346.811 28.6761 346.47 28.7689 346.197 28.9545C345.929 29.1402 345.788 29.3788 345.777 29.6705H343.749C343.756 29.1629 343.908 28.7216 344.203 28.3466C344.502 27.9716 344.904 27.6799 345.408 27.4716C345.915 27.2633 346.487 27.1591 347.124 27.1591C347.805 27.1591 348.394 27.2614 348.891 27.4659C349.387 27.6705 349.769 27.9564 350.038 28.3239C350.307 28.6875 350.442 29.1155 350.442 29.608C350.442 30.0814 350.294 30.4735 349.999 30.7841C349.703 31.0909 349.305 31.3106 348.805 31.4432V31.5341C349.15 31.553 349.461 31.6515 349.737 31.8295C350.014 32.0038 350.233 32.2405 350.396 32.5398C350.559 32.839 350.641 33.1856 350.641 33.5795C350.641 34.1136 350.487 34.5758 350.18 34.9659C349.874 35.3523 349.451 35.6496 348.913 35.858C348.379 36.0663 347.768 36.1705 347.078 36.1705C346.408 36.1705 345.807 36.0701 345.277 35.8693C344.75 35.6648 344.332 35.3712 344.021 34.9886C343.711 34.6061 343.546 34.1458 343.527 33.608ZM354.771 36.1761C354.218 36.1761 353.72 36.0777 353.277 35.8807C352.838 35.6799 352.489 35.3845 352.232 34.9943C351.978 34.6042 351.851 34.1231 351.851 33.5511C351.851 33.0587 351.942 32.6515 352.124 32.3295C352.305 32.0076 352.554 31.75 352.868 31.5568C353.182 31.3636 353.536 31.2178 353.93 31.1193C354.328 31.017 354.739 30.9432 355.163 30.8977C355.675 30.8447 356.089 30.7973 356.408 30.7557C356.726 30.7102 356.957 30.642 357.101 30.5511C357.249 30.4564 357.322 30.3106 357.322 30.1136V30.0795C357.322 29.6515 357.196 29.3201 356.942 29.0852C356.688 28.8504 356.322 28.733 355.845 28.733C355.341 28.733 354.942 28.8428 354.646 29.0625C354.355 29.2822 354.158 29.5417 354.055 29.8409L352.135 29.5682C352.286 29.0379 352.536 28.5947 352.885 28.2386C353.233 27.8788 353.66 27.6098 354.163 27.4318C354.667 27.25 355.224 27.1591 355.834 27.1591C356.254 27.1591 356.673 27.2083 357.089 27.3068C357.506 27.4053 357.887 27.5682 358.232 27.7955C358.576 28.0189 358.853 28.3239 359.061 28.7102C359.273 29.0966 359.379 29.5795 359.379 30.1591V36H357.402V34.8011H357.334C357.209 35.0436 357.033 35.2708 356.805 35.483C356.582 35.6913 356.3 35.8598 355.959 35.9886C355.622 36.1136 355.226 36.1761 354.771 36.1761ZM355.305 34.6648C355.718 34.6648 356.076 34.5833 356.379 34.4205C356.682 34.2538 356.915 34.0341 357.078 33.7614C357.245 33.4886 357.328 33.1913 357.328 32.8693V31.8409C357.264 31.8939 357.154 31.9432 356.999 31.9886C356.847 32.0341 356.677 32.0739 356.487 32.108C356.298 32.142 356.11 32.1723 355.925 32.1989C355.739 32.2254 355.578 32.2481 355.442 32.267C355.135 32.3087 354.86 32.3769 354.618 32.4716C354.375 32.5663 354.184 32.6989 354.044 32.8693C353.904 33.036 353.834 33.2519 353.834 33.517C353.834 33.8958 353.972 34.1818 354.249 34.375C354.525 34.5682 354.877 34.6648 355.305 34.6648ZM360.47 28.9602V27.2727H368.107V28.9602H365.283V36H363.294V28.9602H360.47ZM371.136 30.1136H373.71C374.824 30.1136 375.686 30.3845 376.295 30.9261C376.905 31.4678 377.212 32.178 377.216 33.0568C377.212 33.6288 377.072 34.1364 376.795 34.5795C376.523 35.0227 376.125 35.3712 375.602 35.625C375.083 35.875 374.453 36 373.71 36H369.744V27.2727H371.727V34.3125H373.71C374.157 34.3125 374.525 34.1989 374.812 33.9716C375.1 33.7405 375.244 33.4451 375.244 33.0852C375.244 32.7064 375.1 32.3977 374.812 32.1591C374.525 31.9205 374.157 31.8011 373.71 31.8011H371.136V30.1136ZM386.811 36.1705C385.936 36.1705 385.18 35.9886 384.544 35.625C383.911 35.2576 383.425 34.7386 383.084 34.0682C382.743 33.3939 382.572 32.6004 382.572 31.6875C382.572 30.7898 382.743 30.0019 383.084 29.3239C383.429 28.642 383.91 28.1117 384.527 27.733C385.144 27.3504 385.87 27.1591 386.703 27.1591C387.241 27.1591 387.749 27.2462 388.226 27.4205C388.707 27.5909 389.131 27.8561 389.499 28.2159C389.87 28.5758 390.161 29.0341 390.374 29.5909C390.586 30.1439 390.692 30.803 390.692 31.5682V32.1989H383.538V30.8125H388.72C388.716 30.4186 388.631 30.0682 388.464 29.7614C388.298 29.4508 388.065 29.2064 387.766 29.0284C387.47 28.8504 387.125 28.7614 386.732 28.7614C386.311 28.7614 385.942 28.8636 385.624 29.0682C385.305 29.2689 385.057 29.5341 384.879 29.8636C384.705 30.1894 384.616 30.5473 384.612 30.9375V32.1477C384.612 32.6553 384.705 33.0909 384.891 33.4545C385.076 33.8144 385.336 34.0909 385.669 34.2841C386.002 34.4735 386.393 34.5682 386.839 34.5682C387.139 34.5682 387.41 34.5265 387.652 34.4432C387.894 34.3561 388.105 34.2292 388.283 34.0625C388.461 33.8958 388.595 33.6894 388.686 33.4432L390.607 33.6591C390.485 34.1667 390.254 34.6098 389.913 34.9886C389.576 35.3636 389.144 35.6553 388.618 35.8636C388.091 36.0682 387.489 36.1705 386.811 36.1705ZM405.54 34.3125L405.369 38.5H403.432V36H402.403V34.3125H405.54ZM392.432 27.2727H394.415V34.3068H397.159V27.2727H399.142V34.3068H401.886V27.2727H403.869V36H392.432V27.2727ZM410.936 36.1705C410.061 36.1705 409.305 35.9886 408.669 35.625C408.036 35.2576 407.55 34.7386 407.209 34.0682C406.868 33.3939 406.697 32.6004 406.697 31.6875C406.697 30.7898 406.868 30.0019 407.209 29.3239C407.554 28.642 408.035 28.1117 408.652 27.733C409.269 27.3504 409.995 27.1591 410.828 27.1591C411.366 27.1591 411.874 27.2462 412.351 27.4205C412.832 27.5909 413.256 27.8561 413.624 28.2159C413.995 28.5758 414.286 29.0341 414.499 29.5909C414.711 30.1439 414.817 30.803 414.817 31.5682V32.1989H407.663V30.8125H412.845C412.841 30.4186 412.756 30.0682 412.589 29.7614C412.423 29.4508 412.19 29.2064 411.891 29.0284C411.595 28.8504 411.25 28.7614 410.857 28.7614C410.436 28.7614 410.067 28.8636 409.749 29.0682C409.43 29.2689 409.182 29.5341 409.004 29.8636C408.83 30.1894 408.741 30.5473 408.737 30.9375V32.1477C408.737 32.6553 408.83 33.0909 409.016 33.4545C409.201 33.8144 409.461 34.0909 409.794 34.2841C410.127 34.4735 410.518 34.5682 410.964 34.5682C411.264 34.5682 411.535 34.5265 411.777 34.4432C412.019 34.3561 412.23 34.2292 412.408 34.0625C412.586 33.8958 412.72 33.6894 412.811 33.4432L414.732 33.6591C414.61 34.1667 414.379 34.6098 414.038 34.9886C413.701 35.3636 413.269 35.6553 412.743 35.8636C412.216 36.0682 411.614 36.1705 410.936 36.1705Z" fill="#FF9C07"/>
</svg>
